<?xml version="1.0" encoding="utf-8"?>
<!-- Generator: Adobe Illustrator 28.0.0, SVG Export Plug-In . SVG Version: 6.00 Build 0)  -->
<svg version="1.1" id="Layer_1" xmlns="http://www.w3.org/2000/svg" xmlns:xlink="http://www.w3.org/1999/xlink" x="0px" y="0px"
	 viewBox="0 0 340.9 146.7" style="enable-background:new 0 0 340.9 146.7;" xml:space="preserve">
<style type="text/css">
	.st0{fill:#F59259;}
	.st1{fill:#5BAC46;}
	.st2{fill:#FFFFFF;}
</style>
<g>
	<path class="st0" d="M185.1,37.5c-7-5-14.9-7.7-23.5-8.4c-4.6-0.4-9.1-0.1-13.5,1.2c-12.6,3.7-22.7,10.8-30.6,21.2
		c-6,7.8-9.1,16.8-9.7,26.6c-0.3,5,0,10,0.9,14.9c1.4,7.8,3.8,15.2,8.1,21.9c3.3,5.2,7.4,9.7,12.7,13c5.3,3.2,10.9,5.9,16.8,7.6
		c7.2,2,14.4,3.6,21.6,5.2c2.2,0.5,4.6,0.5,6.9,0.5c1.9,0,3.8-0.6,5.5-2c-2.7,0.4-5.1,1.1-7.7,0.4c0.1-0.2,0.1-0.3,0.1-0.3
		c0.4-0.2,0.7-0.3,1.1-0.4c6.5-1.9,12.5-4.9,17.9-8.9c6.2-4.7,11.4-10.4,14.6-17.6c1.6-3.6,2.5-7.5,3.4-11.4c1.1-4.4,1.9-9,1.6-13.6
		c0-0.6-0.1-1.2-0.1-1.8c0.4,0.4,0.6,0.8,0.7,1.2c0.9,3.8,0.9,7.6,0.6,11.4c-0.2,2.3-0.8,4.4-1.3,6.7c-0.7,2.5-2.1,8.5-8.9,19.4
		c0.1,0,3.5-2.6,3.9-2.9c2.2-1.7,4-3.2,5.5-5.1c1.8-1.7,6.5-7.7,6.8-8.1c3.8-5.2,18.6-33.7-2.9-61.9c-1.4-2.1-2.8-3.6-4.4-5.1
		c-9.6-9.1-21-13.9-34.2-14.5c-1.1-0.1-2.2,0-3.2,0c-1.1,0-2.1,0.1-2.9,0.2c2.6,1.1,5.5,2.2,8.2,3.6c5.2,2.8,9.5,6.7,13.6,10.8
		c4.9,4.9,8.3,10.6,10,17.4c0.1,0.3,0.1,0.7,0.1,1c-0.8-1.1-1.4-2.2-2-3.4C197.5,48.5,192,42.4,185.1,37.5z"/>
</g>
<path d="M134.5,31.6c-4.8,0.1-9.5-0.8-14.1-2.5c-5.1-1.9-9.3-5.1-12.8-9.1c-4.1-4.6-8.1-9.2-12.2-13.8c-0.4-0.5-0.8-1-1.4-1.8
	c2-0.5,3.7-1,5.5-1.3c4.8-0.9,9.5-1.9,14.3-2.5c8.4-1,16.8-0.7,24.8,2.5c6,2.4,11.3,6,15.4,11.1c1.7,2.1,3.5,4.2,5.3,6.3
	c0.7-2.2,1.2-4.5,2.1-6.7c1.2-3.2,2.7-6.3,4.1-9.4c0.9-2,2.5-2.1,4-1.8c1.9,0.4,3.6,1.4,4.8,3c0.9,1.2,0.9,2.5,0,3.9
	c-2.2,3.3-4.3,6.6-6.3,10c-0.9,1.6-1.6,3.3-2.4,5.1c1.9-0.3,3.6-0.6,5.4-0.9c6.1-0.9,12.2-0.2,18.1,1.3c8.6,2.2,16.3,6.2,23.3,11.7
	c4.1,3.2,7,7.5,9.6,12c3.8,6.7,5.7,13.9,7.3,21.3c1,4.8,1.5,9.7,0.9,14.5c-0.5,4.4-1.5,8.8-2.7,13c-2.5,9-8,16.1-14.5,22.5
	c-5.8,5.6-12.6,9.9-19.7,13.5c-0.8,0.4-1.5,0.9-2.1,1.6c-4,4.5-8.7,7.9-14.1,10.5c-1.8,0.9-3.7,1.2-5.7,0.6
	c-10.5-3.1-21.1-5.9-31.5-9.4c-12.9-4.3-22.8-12.8-29.7-24.4c-3.7-6.2-6-13.1-6.7-20.3c-1.5-15.1,2.1-28.9,10.4-41.6
	c3.3-5,7.7-8.8,12.3-12.4C128.8,35.7,131.7,33.7,134.5,31.6z M215.6,46.3c-1.4-2.1-2.8-3.6-4.4-5.1c-9.6-9.1-21-13.9-34.2-14.5
	c-1.1-0.1-2.2,0-3.2,0c-1.1,0-2.1,0.1-2.9,0.2c2.6,1.1,5.5,2.2,8.2,3.6c5.2,2.8,9.5,6.7,13.6,10.8c4.9,4.9,8.3,10.6,10,17.4
	c0.1,0.3,0.1,0.7,0.1,1c-0.8-1.1-1.4-2.2-2-3.4c-3.4-7.9-8.9-13.9-15.8-18.8c-7-5-14.9-7.7-23.5-8.4c-4.6-0.4-9.1-0.1-13.5,1.2
	c-12.6,3.7-22.7,10.8-30.6,21.2c-6,7.8-9.1,16.8-9.7,26.6c-0.3,5,0,10,0.9,14.9c1.4,7.8,3.8,15.2,8.1,21.9c3.3,5.2,7.4,9.7,12.7,13
	c5.3,3.2,10.9,5.9,16.8,7.6c7.2,2,14.4,3.6,21.6,5.2c2.2,0.5,4.6,0.5,6.9,0.5c1.9,0,3.8-0.6,5.5-2c-2.7,0.4-5.1,1.1-7.7,0.4
	c0.1-0.2,0.1-0.3,0.1-0.3c0.4-0.2,0.7-0.3,1.1-0.4c6.5-1.9,12.5-4.9,17.9-8.9c6.2-4.7,11.4-10.4,14.6-17.6c1.6-3.6,2.5-7.5,3.4-11.4
	c1.1-4.4,1.9-9,1.6-13.6c0-0.6-0.1-1.2-0.1-1.8c0.4,0.4,0.6,0.8,0.7,1.2c0.9,3.8,0.9,7.6,0.6,11.4c-0.2,2.3-0.8,4.4-1.3,6.7
	c-0.7,2.5-2.1,8.5-8.9,19.4c0.1,0,3.5-2.6,3.9-2.9c2.2-1.7,4-3.2,5.5-5.1c1.8-1.7,6.5-7.7,6.8-8.1C222.4,103,237.1,74.5,215.6,46.3z
	"/>
<path class="st1" d="M137.7,29.8c-4.2,0.1-12.1-1.1-16.1-2.5c-4.4-1.6-8.1-4.4-11.2-7.9c-3.5-4-7.1-8-10.6-12
	c-0.4-0.4-0.7-0.9-1.3-1.6c1.7-0.4,3.2-0.9,4.8-1.2c4.1-0.8,8.3-1.7,12.5-2.2c7.3-0.9,14.6-0.6,21.6,2.2c5.3,2.1,13,7.6,16.6,12.1
	c1.8,2.2,5.4,6.4,5.9,9c-2-0.1-26.2-21.2-52.8-19.6c-1.1,0.1,18.7-1.8,50,19.4C148.3,25.4,137.7,29.8,137.7,29.8z"/>
<g>
	<g>
		<g>
			<g>
				<g>
					<g>
						<g>
							<path d="M9,143.5c-0.3,0-0.6,0-0.9,0c-1.3-0.1-2.7-0.4-4.3-0.8c-0.3-1.5-0.4-2.9-0.5-4.3L3.2,136l0.1-0.1l1-0.4l0,0
								c1,2.1,2.1,3.6,3.5,4.3c0.8,0.5,1.9,0.7,3.2,0.7c0.8,0,1.8-0.1,2.8-0.3c2.5-0.5,4.6-1.3,6.2-2.6c1.7-1.3,3.1-3.1,4.2-5.5
								c1.2-2.4,2.1-5.5,2.9-9.4c0.8-3.9,2-10.6,3.5-19.9c1.5-9.5,2.2-14.8,2.2-16.3l0-0.3l-0.1-0.6c0,0-0.7,0-0.7,0
								c-0.3,0-0.6,0-1.1,0.1c-2.6,0.5-5,1.4-7.3,2.6c-2.3,1.3-4.2,2.8-5.6,4.7c-1.4,1.9-2.1,3.9-2,6.1c0.1,1.4,0.4,2.7,1.1,3.7
								c0.7,1,1.6,1.7,2.8,2.1l0,0c-0.7,0.3-1.4,0.5-1.9,0.6c-2.4-0.1-4.2-0.7-5.6-1.7c-1.4-1-2.1-2.5-2.2-4.5
								c-0.2-4.6,3.1-8.5,9.8-11.8c6.6-3.3,15.6-6,26.5-8c0,0,0,0,0,0c0.1,0,0.2,0,0.3,0.1c0.4,0.3,0.7,1.2,0.8,2.7l-5.4,0.9
								c-1,0.2-1.7,0.5-2.2,0.8c-0.5,0.3-0.8,0.9-1.1,1.7c-0.3,0.8-0.5,2.1-0.8,3.8c-0.4,2.3-1.2,7.9-2.4,16.5
								c-0.3,1.7-0.7,4.5-1.2,8.4c-0.6,3.9-1,6.7-1.3,8.2c-1.2,5.8-3.5,10.5-7,13.9c-3.4,3.4-7.9,5.6-13.2,6.6
								C11.5,143.4,10.2,143.5,9,143.5z"/>
						</g>
						<g>
							<path d="M46.4,80.3c0.1,0.2,0.2,0.5,0.4,1.3l-4.7,0.8c-1.1,0.2-1.9,0.5-2.5,0.9c-0.6,0.4-1.1,1.2-1.4,2.1
								c-0.3,0.8-0.6,2.1-0.9,3.9c-0.4,2.3-1.2,7.9-2.4,16.5c-0.3,1.7-0.7,4.5-1.2,8.4c-0.6,3.9-1,6.6-1.3,8.1
								c-1.1,5.7-3.4,10.2-6.7,13.5c-3.3,3.3-7.6,5.5-12.8,6.4c-1.5,0.3-2.7,0.4-3.8,0.4c-0.3,0-0.6,0-0.8,0
								c-1.1-0.1-2.3-0.3-3.7-0.7c-0.2-1.2-0.3-2.5-0.4-3.7l-0.1-1.6c1,1.8,2.1,3.1,3.4,3.8c0.9,0.5,2.1,0.8,3.6,0.8
								c0.9,0,1.9-0.1,3-0.3c2.6-0.5,4.8-1.4,6.6-2.7c1.8-1.3,3.3-3.3,4.5-5.8c1.2-2.4,2.2-5.6,3-9.5c0.8-3.9,2-10.6,3.5-20
								c2-12.7,2.2-15.5,2.2-16.5c0-0.2,0-0.3,0-0.4L33.5,85l-1.2-0.1c-0.1,0-0.1,0-0.2,0c-0.3,0-0.7,0-1.2,0.1
								c-2.6,0.5-5.2,1.4-7.6,2.7c-2.4,1.3-4.4,3-5.8,4.9c-1.5,2-2.2,4.2-2.1,6.6c0.1,1.6,0.5,3,1.3,4.2c0.4,0.6,0.8,1,1.3,1.4
								c-2.1-0.1-3.7-0.6-4.9-1.5c-1.2-0.9-1.8-2.2-1.9-3.9c-0.2-4.2,3-8,9.3-11.1C26.9,85,35.7,82.4,46.4,80.3 M46.6,78.7
								c-0.1,0-0.1,0-0.2,0c-11,2.1-20,4.8-26.7,8.1c-7,3.4-10.4,7.7-10.2,12.6c0.1,2.3,0.9,4,2.5,5.2c1.5,1.1,3.6,1.7,6.1,1.8
								l0.1,0l0.1,0c0.6-0.1,1.3-0.3,2-0.6l2.2-0.8l-2.2-0.7c-1-0.3-1.8-0.9-2.4-1.8c-0.6-0.9-1-2-1-3.3c-0.1-2,0.5-3.8,1.8-5.6
								c1.3-1.8,3.1-3.3,5.3-4.5c2.2-1.2,4.6-2.1,7.1-2.5c0.5-0.1,0.8-0.1,0.9-0.1c0,0,0.1,0,0.1,0c0,0,0,0.1,0,0.2
								c0.1,1.4-0.7,6.9-2.2,16.2c-1.5,9.3-2.7,16-3.5,19.9c-0.8,3.8-1.7,6.9-2.9,9.2c-1.1,2.3-2.5,4-4,5.2c-1.6,1.2-3.5,2-5.9,2.5
								c-1,0.2-1.9,0.3-2.7,0.3c-1.2,0-2.1-0.2-2.8-0.6c-1.2-0.7-2.2-2-3.1-4l-0.3-0.7l-1.8,0.8l-0.5,0.3l0.1,2.8
								c0.1,1.4,0.2,2.9,0.5,4.4l0.1,0.5l0.5,0.1c1.7,0.4,3.2,0.7,4.5,0.8c0.3,0,0.6,0,1,0c1.2,0,2.5-0.1,4.1-0.4
								c5.5-1,10.1-3.3,13.6-6.9c3.6-3.5,6-8.3,7.2-14.3c0.3-1.5,0.7-4.3,1.3-8.2c0.6-3.9,1-6.7,1.2-8.4c1.2-8.6,2-14.1,2.4-16.4
								c0.3-1.7,0.6-2.9,0.8-3.7c0.2-0.6,0.5-1.1,0.8-1.3c0.3-0.2,0.8-0.5,1.8-0.7l6.2-1l-0.1-0.8c-0.2-1.8-0.6-2.8-1.2-3.2
								C47.1,78.8,46.8,78.7,46.6,78.7L46.6,78.7z"/>
						</g>
					</g>
					<g>
						<path d="M9,145.9c-0.4,0-0.8,0-1.1,0c-1.4-0.1-3-0.4-4.7-0.9l-1.5-0.4l-0.3-1.5c-0.3-1.6-0.5-3.1-0.5-4.6l-0.1-3.7l1.5-0.9
							l3.2-1.4l1,2.1c0.7,1.6,1.6,2.8,2.5,3.3c0.5,0.3,1.6,0.7,4.4,0.1c2.1-0.4,3.9-1.1,5.2-2.2c1.4-1,2.6-2.6,3.5-4.6
							c1.1-2.2,2-5.2,2.7-8.8c0.8-3.9,2-10.5,3.5-19.8c1.3-8.2,1.9-12.2,2.1-14.2c-2,0.5-3.9,1.2-5.7,2.2c-2,1.1-3.6,2.4-4.8,4
							c-1.1,1.4-1.6,2.9-1.5,4.6c0,1,0.3,1.8,0.7,2.5c0.4,0.6,0.9,1,1.6,1.2l6.6,2.2l-6.5,2.4c-0.9,0.3-1.6,0.5-2.3,0.7l-0.5,0
							c-2.9-0.1-5.2-0.9-7-2.1c-2-1.4-3.1-3.6-3.2-6.4c-0.2-5.6,3.5-10.3,11.1-14c6.8-3.4,16-6.1,27.1-8.2c0.8-0.1,1.5,0,2.2,0.5
							c1.2,0.9,1.6,2.6,1.8,4.3l0.3,2.3l-7.7,1.3c-0.9,0.2-1.1,0.4-1.2,0.4l0,0c0,0-0.1,0.1-0.3,0.5c-0.2,0.5-0.4,1.4-0.7,3.4
							c-0.4,2.3-1.2,7.8-2.4,16.4c-0.3,1.7-0.7,4.5-1.2,8.4c-0.6,3.9-1,6.7-1.3,8.3c-1.3,6.3-3.8,11.4-7.6,15.1
							c-3.8,3.7-8.7,6.2-14.5,7.3C11.8,145.7,10.3,145.9,9,145.9z"/>
						<path d="M9,146.7c-0.4,0-0.8,0-1.2,0c-1.4-0.1-3.1-0.4-4.9-0.9l-1.9-0.5l-0.4-2c-0.3-1.6-0.5-3.2-0.5-4.8L0,134.4l1.9-1.2
							l4.1-1.7l1.3,2.8c0.7,1.5,1.4,2.5,2.2,2.9c0.2,0.1,1.2,0.5,3.8,0c2-0.4,3.6-1,4.9-2c1.3-1,2.4-2.4,3.3-4.3
							c1-2.1,1.9-5,2.7-8.6c0.7-3.3,1.7-8.8,2.9-16.4l-5.9,2.2c-0.9,0.3-1.7,0.6-2.4,0.7l-0.5,0.1c-3.1-0.1-5.7-0.9-7.6-2.3
							c-2.2-1.6-3.4-4-3.5-7c-0.2-5.9,3.7-10.9,11.5-14.8c6.9-3.4,16.1-6.2,27.3-8.3c1-0.2,2,0,2.8,0.6c1.5,1.1,1.9,3,2.1,4.8l0.4,3
							l-8.5,1.4c-0.4,0.1-0.6,0.1-0.7,0.2c0,0,0,0.1-0.1,0.2c-0.1,0.4-0.4,1.3-0.7,3.3c-0.4,2.3-1.2,7.8-2.4,16.4
							c-0.3,1.7-0.7,4.5-1.2,8.5c-0.6,3.9-1,6.8-1.3,8.3c-1.3,6.5-3.9,11.7-7.8,15.5c-3.9,3.9-8.9,6.4-14.9,7.5
							C11.9,146.5,10.4,146.7,9,146.7z M2.4,143.9l1,0.3c1.7,0.5,3.3,0.7,4.6,0.9c1.4,0.1,3.2,0,5.3-0.4c5.6-1.1,10.4-3.4,14-7.1
							c3.7-3.6,6.2-8.6,7.4-14.7c0.3-1.6,0.8-4.3,1.3-8.3c0.6-3.9,1-6.7,1.2-8.5c1.2-8.6,2-14.1,2.4-16.4c0.3-1.6,0.5-2.8,0.8-3.5
							c0.2-0.5,0.3-0.7,0.5-0.9c0.3-0.2,0.7-0.4,1.6-0.6l7-1.1l-0.2-1.5c-0.2-1.5-0.5-3.1-1.5-3.8c-0.5-0.3-1-0.5-1.6-0.4
							c-11.1,2.1-20.1,4.8-26.9,8.2c-7.3,3.6-10.8,8.1-10.6,13.3c0.1,2.5,1.1,4.5,2.9,5.8c1.6,1.2,3.9,1.9,6.6,2l0.4,0
							c0.5-0.1,1.3-0.3,2.1-0.6l4.3-1.6l-4.4-1.4c-0.8-0.3-1.5-0.8-2-1.5c-0.5-0.8-0.8-1.8-0.9-2.9c-0.1-1.9,0.5-3.5,1.7-5.1
							c1.3-1.7,3-3.1,5.1-4.2c1.9-1,3.8-1.8,5.9-2.2l1.1-0.3l-0.1,1.1c-0.3,2.6-1,7.4-2.1,14.2c-0.1,0.7-0.2,1.3-0.3,1.9l0.9,0.3
							l-1,0.4c-1.3,8-2.4,13.8-3.1,17.3c-0.8,3.7-1.7,6.7-2.8,9c-1,2.1-2.3,3.8-3.8,4.9c-1.5,1.1-3.3,1.9-5.6,2.3
							c-2.8,0.5-4.2,0.2-4.9-0.2c-1-0.6-2-1.8-2.8-3.6l-0.6-1.4l-2.5,1.1l-1,0.6l0.1,3.2c0.1,1.5,0.2,3,0.5,4.5L2.4,143.9z
							 M29.5,89.4c-1.5,0.4-3,1-4.4,1.8c-1.9,1-3.4,2.3-4.6,3.8c-1,1.3-1.4,2.6-1.3,4.1c0,0.8,0.2,1.5,0.6,2.1
							c0.3,0.5,0.7,0.7,1.2,0.9l6.3,2.1c0.1-0.5,0.2-1.1,0.3-1.7C28.7,95.4,29.3,91.6,29.5,89.4z"/>
					</g>
				</g>
			</g>
			<g>
				<g>
					<g>
						<g>
							<path d="M53.9,124.7c-1.1,0-2.2-0.3-3.3-0.9c-1.5-0.8-2.4-1.8-2.6-2.9L51,99.4c0.1-0.8,0.4-1.3,0.8-1.4
								c0.3,0,0.6-0.1,1.1-0.1c0.5,0,1.1,0,1.8,0.1c0.5,0,2.1,0.2,2.1,0.7c0,0.1-0.1,0.6-0.5,2.6c-0.4,1.9-0.9,4.8-1.5,8.7
								c-0.6,3.8-1,6.5-1.3,8.2l0,0.2l0,0.2c0.1,0.5,0.5,0.9,1,1.3c0.4,0.3,0.9,0.4,1.4,0.4c0.2,0,0.4,0,0.6-0.1
								c1.3-0.2,2.6-1.2,3.9-3c1.3-1.7,2.4-4.3,3.2-7.6c0.7-2.7,1.6-7.3,2.6-13.6c0.1-0.5,0.3-0.8,0.7-0.8c0.3,0,0.6-0.1,1-0.1
								c0.5,0,1.1,0,1.8,0.1c1.3,0.1,1.9,0.4,1.9,0.8c-1.1,4.7-2.1,9-2.8,12.7c-0.8,3.8-1.1,6.2-1.1,7.3c0,0.8,0.3,1.5,0.8,1.9
								c0.4,0.3,0.9,0.5,1.5,0.5c0.2,0,0.5,0,0.8-0.1c1.9-0.3,4-1.8,6.3-4.4c2.3-2.6,4.5-6,6.5-10.3c0.7,0,1.1,0.4,1.1,1
								c0,1-0.7,2.9-2.3,5.5c-1.5,2.7-3.5,5.2-5.8,7.5c-2.3,2.3-4.6,3.7-7,4.1c-0.5,0.1-1,0.1-1.4,0.1c-1.2,0-2.2-0.3-3.1-0.9
								c-0.8-0.5-1.4-1.3-1.7-2.1l-0.5-1.4l-0.9,1.2c-0.9,1.2-1.9,2.4-2.9,3.4c-1.5,1.4-3,2.3-4.3,2.6
								C54.5,124.7,54.2,124.7,53.9,124.7z"/>
						</g>
						<g>
							<path d="M68.1,95.8c0.5,0,1,0,1.7,0.1c0.6,0.1,1,0.1,1.2,0.2c-1.1,4.5-2,8.7-2.7,12.4c-1,5.2-1.1,6.8-1.1,7.5
								c0,1,0.4,1.9,1.1,2.5c0.4,0.3,1,0.7,2,0.7c0.3,0,0.6,0,0.9-0.1c2.1-0.4,4.2-1.9,6.7-4.6c2.2-2.4,4.3-5.7,6.2-9.6
								c-0.1,0.7-0.5,2.1-2.2,4.9c-1.5,2.6-3.4,5.1-5.7,7.3c-2.2,2.2-4.4,3.5-6.6,3.9c-0.4,0.1-0.9,0.1-1.3,0.1
								c-1,0-1.9-0.3-2.7-0.8c-0.7-0.5-1.1-1-1.4-1.8l-1-2.7l-1.7,2.4c-0.9,1.2-1.8,2.3-2.8,3.3c-1.4,1.3-2.7,2.1-3.9,2.4
								c-0.3,0.1-0.6,0.1-0.9,0.1c-0.9,0-1.9-0.3-3-0.8c-1.2-0.6-2-1.4-2.2-2.2l3.1-21.4c0.1-0.5,0.2-0.7,0.2-0.8
								c0.2,0,0.4-0.1,0.9-0.1c0.5,0,1,0,1.8,0.1c0.3,0,0.9,0.1,1.3,0.2c-0.1,0.3-0.2,1-0.4,2.2c-0.4,1.9-0.9,4.8-1.5,8.7
								c-0.6,3.8-1,6.5-1.3,8.2l0,0.3l0.1,0.3c0.2,0.7,0.6,1.3,1.3,1.7c0.6,0.4,1.2,0.6,1.9,0.6c0.2,0,0.5,0,0.7-0.1
								c1.5-0.3,2.9-1.4,4.4-3.3c1.4-1.8,2.5-4.5,3.4-7.9c0.7-2.8,1.6-7.4,2.6-13.7c0-0.1,0-0.2,0.1-0.2c0,0,0,0,0,0
								C67.3,95.9,67.6,95.8,68.1,95.8 M68.1,94.2c-0.5,0-0.8,0-1.2,0.1c-0.7,0.1-1.2,0.7-1.3,1.5c-1,6.3-1.9,10.8-2.6,13.5
								c-0.8,3.2-1.8,5.6-3.1,7.3c-1.2,1.6-2.4,2.5-3.5,2.7c-0.1,0-0.3,0-0.4,0c-0.4,0-0.7-0.1-1-0.3c-0.4-0.2-0.6-0.5-0.7-0.8
								c0.2-1.7,0.6-4.4,1.2-8.2c0.6-3.8,1.1-6.7,1.5-8.6c0.5-2.5,0.5-2.7,0.5-2.8c0-1.2-1.9-1.4-2.9-1.4c-0.7-0.1-1.4-0.1-1.9-0.1
								c-0.5,0-0.9,0-1.2,0.1c-0.8,0.1-1.2,0.8-1.5,2.1l-3.2,21.6l0,0.1l0,0.1c0.3,1.4,1.3,2.5,3.1,3.4c1.3,0.7,2.5,1,3.7,1
								c0.4,0,0.8,0,1.2-0.1c1.5-0.3,3.1-1.2,4.7-2.8c1.1-1.1,2.1-2.2,3-3.5c0.4,1,1.1,1.9,2,2.5c1.1,0.7,2.3,1.1,3.6,1.1
								c0.5,0,1-0.1,1.6-0.2c2.5-0.5,5-1.9,7.4-4.4c2.3-2.3,4.3-4.9,5.9-7.6c1.7-2.9,2.4-4.8,2.4-6c0-1-0.7-1.7-1.9-1.7l-0.5,0
								l-0.2,0.5c-2,4.2-4.1,7.6-6.4,10.1c-2.2,2.4-4.1,3.8-5.8,4.1c-0.2,0-0.4,0.1-0.6,0.1c-0.4,0-0.7-0.1-1-0.3
								c-0.4-0.3-0.5-0.8-0.6-1.3c0-1,0.3-3.5,1.1-7.2c0.7-3.7,1.7-8,2.8-12.7l0-0.1l0-0.1c0-1.3-1.9-1.5-2.6-1.6
								C69.2,94.3,68.6,94.2,68.1,94.2L68.1,94.2z"/>
						</g>
					</g>
					<g>
						<path d="M53.9,127.1c-1.4,0-2.9-0.4-4.4-1.2c-2.2-1.1-3.5-2.7-3.9-4.5l-0.1-0.3l0-0.4L48.7,99c0.4-2.6,1.9-3.2,2.7-3.4
							c0.8-0.1,1.8-0.2,3.5,0c1,0.1,4.2,0.3,4.3,3c0,0.3,0,0.5-0.6,3.2c-0.4,1.8-0.9,4.7-1.5,8.5c-0.5,3.3-0.9,5.8-1.2,7.5
							c0,0,0.1,0,0.1,0c0.3-0.1,1.2-0.4,2.5-2.1c1.1-1.5,2.1-3.7,2.8-6.7c0.7-2.7,1.5-7.2,2.6-13.4c0.2-1.5,1.2-2.5,2.6-2.8
							c0.8-0.2,1.9-0.2,3.4,0c3.3,0.3,4,1.9,4.1,3.1l0,0.2l0,0.3c-1.1,4.8-2.1,9-2.8,12.7c-0.9,4.7-1,6.3-1,6.8c0,0,0,0.1,0,0.1
							c0.1,0,0.2,0,0.3,0c0.9-0.2,2.5-0.9,4.9-3.6c2.2-2.4,4.2-5.7,6.1-9.7l0.7-1.4l1.6,0.1c1.9,0.1,3.3,1.4,3.3,3.3
							c0.1,1.6-0.7,3.6-2.6,6.8c-1.6,2.8-3.7,5.5-6.1,8c-2.6,2.7-5.4,4.3-8.2,4.8c-2.4,0.5-4.5,0.1-6.3-1.2
							c-0.5-0.3-0.9-0.7-1.3-1.1c-0.6,0.7-1.2,1.3-1.8,1.9c-1.8,1.8-3.7,2.8-5.5,3.2C54.8,127.1,54.3,127.1,53.9,127.1z M70.1,116
							L70.1,116L70.1,116z"/>
						<path d="M53.9,127.9c-1.6,0-3.2-0.4-4.8-1.2c-2.4-1.3-3.9-3-4.3-5.1l-0.1-0.3l0-0.5l3.2-21.8c0.5-3.1,2.3-3.8,3.4-4
							c0.8-0.2,1.9-0.2,3.7,0c3.3,0.2,5,1.5,5.1,3.7c0,0.5,0,0.7-0.6,3.4c-0.4,1.8-0.9,4.7-1.5,8.5c-0.4,2.3-0.7,4.3-0.9,5.8
							c0.3-0.3,0.6-0.6,0.9-1.1c1.1-1.4,2-3.5,2.7-6.4c0.7-2.7,1.5-7.2,2.5-13.3c0.3-1.8,1.5-3.1,3.3-3.5c0.9-0.2,2-0.2,3.7,0
							c4.1,0.4,4.7,2.6,4.8,3.9l0,0.2l-0.1,0.5c-1.1,4.8-2.1,9.1-2.8,12.8c-0.6,3.1-0.9,4.8-1,5.7c0.8-0.4,2-1.2,3.8-3.1
							c2.1-2.3,4.1-5.5,6-9.5l0.9-1.9l2.1,0.1c2.3,0.1,4,1.8,4.1,4c0.1,1.7-0.7,3.9-2.7,7.3c-1.7,2.9-3.8,5.6-6.3,8.1
							c-2.8,2.8-5.7,4.5-8.6,5c-2.6,0.5-5,0.1-6.9-1.3c-0.3-0.2-0.5-0.4-0.8-0.6c-0.4,0.4-0.8,0.9-1.3,1.3c-2,1.9-4,3-5.9,3.4
							C54.9,127.8,54.4,127.9,53.9,127.9z M46.3,121.1l0,0.2c0.3,1.6,1.5,3,3.5,4c1.9,0.9,3.7,1.3,5.4,0.9c1.7-0.3,3.4-1.3,5.1-3
							c0.6-0.6,1.2-1.2,1.7-1.8l0.6-0.7l0.6,0.7c0.3,0.4,0.7,0.7,1.1,1c1.6,1.1,3.6,1.4,5.8,1c2.7-0.5,5.3-2,7.8-4.6
							c2.4-2.4,4.4-5,6-7.8c1.8-3,2.5-5,2.5-6.4c-0.1-1.4-1.1-2.4-2.6-2.5l-1.1-0.1l-0.5,1c-2,4.1-4.1,7.4-6.3,9.9
							c-2.1,2.3-3.9,3.6-5.4,3.9c-0.2,0-0.3,0-0.4,0l-0.8,0l-0.1-0.9c0-1,0.3-3.4,1-7c0.7-3.7,1.7-8,2.8-12.8l0-0.2l0-0.1
							c0-1.3-1.2-2.1-3.4-2.4c-1.5-0.1-2.5-0.1-3.2,0c-1.1,0.2-1.8,1-2,2.1c-1,6.2-1.9,10.8-2.6,13.5c-0.8,3.1-1.8,5.4-3,7
							c-1.4,1.8-2.4,2.3-3,2.4l-1.1,0.2l0-1.1c0.2-1.7,0.6-4.2,1.2-7.5c0.6-3.9,1.2-6.8,1.5-8.6c0.6-2.6,0.5-2.8,0.5-3
							c0-1.3-1.2-2-3.6-2.2c-1.6-0.1-2.6-0.1-3.3,0c-0.8,0.1-1.8,0.7-2.1,2.7L46.3,121.1z"/>
					</g>
				</g>
			</g>
			<g>
				<g>
					<g>
						<g>
							<path d="M84,119.4c-0.7,0-1.5-0.1-2.1-0.2c-1.4-0.3-2.5-0.8-3.3-1.5c-0.8-0.7-1.3-1.6-1.3-2.5c0-0.9,0.2-1.6,0.9-2.2
								c0.6-0.6,1.3-1,2.1-1.3l0,0c0.6,1.6,1.4,2.8,2.5,3.6c0.8,0.6,1.7,0.9,2.8,0.9c0.4,0,0.8,0,1.2-0.1c1.6-0.3,2.9-1,3.9-2.2
								c1-1.2,1.5-2.4,1.4-3.7c0-1.1-0.4-1.9-1.1-2.6c-0.7-0.7-1.8-1.4-3.3-2.3c-1.5-0.9-2.7-1.7-3.5-2.5c-0.8-0.8-1.2-1.8-1.2-3
								c0-1.4,0.4-2.8,1.3-4.1c0.9-1.4,2.1-2.6,3.5-3.6c1.5-1,2.9-1.6,4.4-1.9c0.6-0.1,1.3-0.2,1.9-0.2c1,0,1.9,0.1,2.8,0.4
								c1.5,0.5,2.3,1.2,2.4,2.2c0,0.5-0.1,1-0.5,1.5c-0.3,0.5-0.9,1-1.6,1.5l0,0c-0.7-0.9-1.3-1.6-2-1.9c-0.5-0.3-1-0.4-1.6-0.4
								c-0.3,0-0.6,0-0.9,0.1c-1.1,0.2-2,0.7-2.8,1.4c-0.8,0.7-1.1,1.6-1.1,2.6c0,0.9,0.4,1.7,1.1,2.3c0.7,0.6,1.8,1.4,3.1,2.2
								c1.7,1,2.9,1.9,3.8,2.7c0.8,0.8,1.3,1.9,1.4,3.2c0.1,1.5-0.5,3.1-1.5,4.7c-1.1,1.6-2.5,3.1-4.3,4.3c-1.8,1.2-3.8,2-5.8,2.4
								C85.6,119.4,84.8,119.4,84,119.4z"/>
						</g>
						<g>
							<path d="M94,90.9c0.9,0,1.8,0.1,2.6,0.4c0.8,0.2,1.8,0.7,1.8,1.4c0,0.3-0.1,0.7-0.4,1.1c-0.2,0.3-0.4,0.5-0.7,0.8
								c-0.6-0.7-1.2-1.2-1.8-1.6c-0.6-0.3-1.3-0.5-2-0.5c-0.3,0-0.7,0-1,0.1c-1.2,0.2-2.3,0.8-3.2,1.6c-0.9,0.9-1.4,2-1.4,3.2
								c0,1.1,0.5,2.1,1.3,2.9c0.7,0.7,1.8,1.4,3.3,2.3c1.7,1,2.8,1.8,3.7,2.6c0.7,0.7,1.1,1.5,1.1,2.7c0,1.3-0.4,2.8-1.4,4.2
								c-1,1.5-2.4,2.9-4.1,4.1c-1.7,1.2-3.6,1.9-5.5,2.3c-0.8,0.1-1.5,0.2-2.2,0.2c-0.7,0-1.4-0.1-2-0.2c-1.3-0.3-2.3-0.7-3-1.4
								c-0.7-0.6-1-1.2-1-1.9c0-0.6,0.2-1.2,0.6-1.6c0.3-0.3,0.7-0.6,1.1-0.8c0.6,1.4,1.5,2.5,2.5,3.2c0.9,0.7,2,1,3.2,1
								c0.4,0,0.9,0,1.4-0.1c1.8-0.3,3.2-1.2,4.3-2.5c1.1-1.3,1.6-2.7,1.6-4.2c0-1.3-0.5-2.3-1.3-3.2c-0.8-0.7-1.9-1.5-3.4-2.4
								c-1.5-0.8-2.6-1.6-3.3-2.3c-0.6-0.6-1-1.4-1-2.5c0-1.2,0.3-2.4,1.2-3.7c0.8-1.3,2-2.4,3.3-3.3c1.4-0.9,2.7-1.5,4.1-1.8
								C92.8,90.9,93.4,90.9,94,90.9 M94,89.3c-0.7,0-1.4,0.1-2.1,0.2c-1.6,0.3-3.1,1-4.7,2c-1.5,1-2.8,2.3-3.8,3.8
								c-1,1.5-1.5,3.1-1.4,4.6c0.1,1.5,0.6,2.6,1.5,3.5c0.8,0.8,2.1,1.7,3.7,2.6c1.4,0.8,2.5,1.5,3.1,2.1c0.5,0.5,0.8,1.2,0.9,2.1
								c0,1.1-0.4,2.1-1.2,3.1c-0.9,1-2,1.7-3.4,1.9c-0.4,0.1-0.7,0.1-1.1,0.1c-0.9,0-1.6-0.2-2.3-0.7c-1-0.7-1.7-1.8-2.3-3.2
								l-0.3-0.7l-0.7,0.2c-0.9,0.3-1.7,0.8-2.4,1.5c-0.8,0.8-1.1,1.7-1.1,2.8c0,1.2,0.6,2.2,1.6,3.1c0.9,0.8,2.2,1.4,3.7,1.7
								c0.7,0.2,1.5,0.2,2.3,0.2c0.8,0,1.7-0.1,2.5-0.2c2.2-0.4,4.2-1.3,6.1-2.6c1.9-1.3,3.4-2.8,4.5-4.5c1.2-1.8,1.7-3.5,1.7-5.2
								c-0.1-1.5-0.6-2.8-1.6-3.8c-0.9-0.9-2.2-1.8-4-2.8c-1.3-0.8-2.4-1.5-3-2.1c-0.5-0.5-0.8-1-0.8-1.7c0-0.8,0.3-1.5,0.9-2
								c0.7-0.6,1.4-1,2.4-1.2c0.3-0.1,0.5-0.1,0.8-0.1c0.5,0,0.9,0.1,1.2,0.3c0.6,0.3,1.2,0.9,1.8,1.7l0.4,0.6l0.6-0.4
								c0.8-0.5,1.4-1.1,1.8-1.7c0.4-0.7,0.6-1.3,0.6-2c0-0.9-0.6-2.2-2.9-2.9C96.1,89.4,95,89.3,94,89.3L94,89.3z"/>
						</g>
					</g>
					<g>
						<path d="M84,121.8c-0.9,0-1.8-0.1-2.6-0.3c-1.8-0.4-3.3-1.1-4.4-2.1c-1.3-1.2-2-2.6-2.1-4.2c-0.1-1.5,0.5-2.9,1.5-4
							c0.9-0.9,1.9-1.5,3.1-1.9l2.1-0.6l0.8,2.1c0.4,1.2,1,2,1.7,2.5c0.4,0.3,1,0.6,2.1,0.3c1.1-0.2,1.9-0.6,2.5-1.4
							c0.8-0.9,0.9-1.6,0.8-2c0-0.6-0.2-0.8-0.4-1c-0.4-0.4-1.2-1-2.8-1.9c-1.7-1-3.1-1.9-4-2.8c-1.2-1.2-1.9-2.8-2-4.6
							c-0.1-1.9,0.5-3.7,1.7-5.5c1.1-1.6,2.5-3.1,4.2-4.2c1.7-1.2,3.5-1.9,5.3-2.3c2-0.4,4-0.3,5.9,0.3c3.4,1,4,3.2,4,4.4
							c0,1-0.2,1.9-0.8,2.9c-0.5,0.9-1.3,1.6-2.3,2.2l-1.9,1.2L95.2,97c-0.6-0.8-1-1.1-1.2-1.2c-0.1,0-0.3-0.2-0.9-0.1
							c-0.6,0.1-1.1,0.4-1.6,0.8c-0.3,0.3-0.4,0.5-0.4,0.8c0,0.2,0.1,0.4,0.3,0.6c0.4,0.4,1.2,1,2.7,1.9c1.9,1.1,3.3,2.1,4.3,3
							c1.3,1.3,2,2.9,2.1,4.9c0.1,2-0.6,4.1-1.9,6.1c-1.2,1.9-2.9,3.5-5,4.9c-2.1,1.4-4.3,2.3-6.7,2.8
							C85.9,121.7,84.9,121.8,84,121.8z"/>
						<path d="M84,122.6c-1,0-1.9-0.1-2.8-0.3c-1.9-0.4-3.5-1.2-4.8-2.3c-1.5-1.3-2.3-3-2.4-4.8c-0.1-1.7,0.6-3.3,1.8-4.5
							c1-1,2.1-1.7,3.4-2.1l2.9-0.8l1,2.8c0.4,1,0.8,1.7,1.4,2.1c0.2,0.1,0.5,0.4,1.5,0.2c0.9-0.2,1.5-0.5,2-1.1
							c0.7-0.8,0.7-1.3,0.6-1.5c0-0.3-0.1-0.4-0.1-0.5c-0.3-0.3-1-0.9-2.6-1.8c-1.8-1-3.2-2-4.2-2.9c-1.4-1.3-2.1-3.1-2.2-5.2
							c-0.1-2,0.5-4.1,1.8-6c1.1-1.7,2.6-3.2,4.4-4.4c1.8-1.2,3.7-2,5.6-2.4c2.1-0.4,4.3-0.3,6.3,0.3c4,1.2,4.6,4,4.6,5.1
							c0,1.1-0.3,2.2-1,3.3c-0.6,1-1.5,1.8-2.6,2.5l-2.5,1.6l-1.7-2.4c-0.5-0.7-0.9-0.9-1-1c0,0-0.1,0-0.4,0
							c-0.5,0.1-0.8,0.3-1.2,0.6c-0.1,0.1-0.1,0.1-0.1,0.2c0.4,0.4,1.2,1,2.6,1.8c1.9,1.1,3.4,2.1,4.4,3.1c1.5,1.4,2.3,3.2,2.3,5.4
							c0.1,2.2-0.6,4.4-2.1,6.6c-1.3,2-3,3.7-5.2,5.2c-2.2,1.5-4.5,2.4-7,2.9C86,122.5,85,122.6,84,122.6z M81.2,109.7l-1.4,0.4
							c-1,0.3-2,0.9-2.8,1.7c-0.9,0.9-1.4,2.1-1.3,3.4c0,1.4,0.7,2.6,1.8,3.6c1,0.9,2.4,1.5,4,1.9c1.6,0.3,3.4,0.3,5.2,0
							c2.3-0.4,4.4-1.3,6.4-2.7c2-1.3,3.6-2.9,4.8-4.7c1.3-1.9,1.9-3.8,1.8-5.6c-0.1-1.8-0.7-3.2-1.8-4.3c-0.9-0.9-2.3-1.9-4.1-2.9
							c-1.6-0.9-2.5-1.6-2.9-2c-0.4-0.3-0.5-0.7-0.6-1.2c0-0.6,0.2-1,0.6-1.4c0.6-0.5,1.2-0.8,2-1c0.6-0.1,1.1-0.1,1.5,0.1
							c0.5,0.3,1,0.8,1.5,1.5l0.9,1.2L98,97c0.9-0.6,1.6-1.2,2.1-2c0.5-0.8,0.7-1.6,0.7-2.4c0-1.2-0.7-2.8-3.5-3.6
							c-1.8-0.5-3.6-0.6-5.5-0.3c-1.7,0.3-3.3,1-5,2.1c-1.6,1.1-3,2.4-4,4c-1.1,1.7-1.6,3.4-1.5,5.1c0.1,1.7,0.6,3,1.7,4.1
							c0.9,0.9,2.2,1.8,3.8,2.7c1.3,0.8,2.4,1.5,3,2c0.4,0.4,0.6,0.9,0.6,1.5c0,0.9-0.3,1.7-1,2.6c-0.7,0.9-1.7,1.4-3,1.7
							c-1.5,0.3-2.3-0.1-2.7-0.5c-0.8-0.6-1.5-1.6-2-2.9L81.2,109.7z M93.6,96.5C93.6,96.5,93.6,96.5,93.6,96.5
							C93.6,96.5,93.6,96.5,93.6,96.5z"/>
					</g>
				</g>
			</g>
			<g>
				<g>
					<g>
						<g>
							<path d="M112.5,113.9c-1.3,0-2.5-0.4-3.3-1.1c-1.2-1-1.9-2.6-1.9-4.7c-0.1-2.2,0.5-7.5,1.9-16.1l0.2-1.2l-6.6,1.5
								c-0.1,0-0.2-0.2-0.3-0.3c-0.1-0.2-0.2-0.4-0.3-0.5l0,0c0.7-1.5,1.2-2.6,1.6-3.3l6-1.1l2.5-15.4c2.8-2.1,5.4-3.6,7.7-4.5
								c0,0,0,0,0,0c0,0,0,0,0.1,0c0.1,0,0.3,0,0.6,0.2c0.2,0.2,0.4,0.4,0.4,0.5v0c-1.8,1.2-2.8,2.7-3.1,4.6
								c-0.5,2.6-1.2,6.6-2.1,12.3l-0.2,1.1l12.5-2.3v0c0,0.2,0,0.4,0,0.8c0,0.3,0.1,0.6,0.1,0.8c0,0.4-0.1,0.7-0.3,0.9
								c-0.2,0.2-0.5,0.4-1,0.4l-11.7,2.7l-0.1,0.5c-1.3,8.5-1.9,13.9-1.9,16.2c0,1.2,0.4,2,1,2.6c0.4,0.4,1.1,0.6,1.8,0.6
								c0.3,0,0.7,0,1.1-0.1c2-0.4,4.2-1.5,6.6-3.5c2.4-1.9,4.8-4.4,7.2-7.3l0,0c0.3,0.3,0.4,0.6,0.4,1c0,0.3-0.1,0.8-0.2,1.4
								c-0.6,1.5-1.8,3.1-3.8,5.1c-2,1.9-4.2,3.6-6.7,5c-2.5,1.5-4.7,2.4-6.6,2.7C113.6,113.9,113,113.9,112.5,113.9z"/>
						</g>
						<g>
							<path d="M119.3,68.5c-1.2,1.1-1.9,2.5-2.1,4.1c-0.5,2.6-1.2,6.6-2.1,12.4l-0.4,2.2l2.2-0.4l10.4-1.9c0,0.3,0,0.5,0,0.6
								c0,0.2,0,0.3-0.1,0.3c0,0-0.2,0.2-0.6,0.2l-11.2,2.6l-1,0.2l-0.2,1.1c-1.3,8.7-2,14-1.9,16.3c0,1.4,0.5,2.4,1.3,3.2
								c0.6,0.5,1.4,0.8,2.4,0.8c0.4,0,0.8,0,1.3-0.1c2.1-0.4,4.5-1.6,7-3.6c2.1-1.7,4.2-3.7,6.3-6.1c0,0.1,0,0.2-0.1,0.4
								c-0.6,1.4-1.8,3-3.6,4.8c-1.9,1.8-4.1,3.5-6.6,4.9c-2.4,1.4-4.6,2.3-6.4,2.6c-0.5,0.1-1.1,0.2-1.5,0.2
								c-1.2,0-2.1-0.3-2.8-0.9c-1-0.9-1.6-2.3-1.7-4.1c-0.1-2.2,0.5-7.5,1.9-16l0.4-2.3l-2.3,0.5l-4.9,1.1c0.5-1,0.9-1.8,1.2-2.4
								l5.1-1l1.1-0.2l0.2-1.1l2.4-14.5C115.3,70.6,117.4,69.3,119.3,68.5 M120.1,66.5c-0.1,0-0.2,0-0.4,0c-2.4,0.9-5.1,2.5-7.9,4.6
								l-0.3,0.2l-2.5,15.2l-5.8,1.1l-0.2,0.3c-0.4,0.7-1,1.8-1.7,3.4l-0.1,0.3l0.1,0.3c0.1,0.2,0.2,0.4,0.4,0.6
								c0.1,0.2,0.4,0.6,0.9,0.6c0.1,0,0.1,0,0.2,0l5.4-1.2c-1.3,8.7-2,14-1.9,16.3c0.1,2.3,0.8,4.1,2.2,5.3c1,0.9,2.3,1.3,3.8,1.3
								c0.6,0,1.2-0.1,1.8-0.2c2-0.4,4.3-1.3,6.9-2.8c2.5-1.5,4.9-3.2,6.9-5.1c2.1-2,3.4-3.7,4.1-5.4c0.2-0.7,0.3-1.2,0.2-1.6
								c0-0.6-0.2-1.1-0.7-1.5l-0.6-0.7l-0.6,0.7c-2.3,2.9-4.7,5.3-7.1,7.1c-2.3,1.8-4.4,2.9-6.3,3.3c-0.4,0.1-0.7,0.1-1,0.1
								c-0.6,0-1-0.1-1.3-0.4c-0.5-0.4-0.7-1.1-0.8-2c-0.1-2.2,0.5-7.6,1.9-16l11.2-2.6c0.6-0.1,1.1-0.3,1.4-0.7
								c0.3-0.3,0.6-0.7,0.5-1.5c0-0.2,0-0.4-0.1-0.8c0-0.4,0-0.5,0-0.5l0.2-1.2l-12.5,2.3c0.9-5.7,1.6-9.7,2.1-12.3
								c0.3-1.7,1.2-3,2.8-4.1l0.4-0.2l0-0.4c0-0.4-0.3-0.8-0.7-1.1C120.8,66.6,120.5,66.5,120.1,66.5L120.1,66.5z"/>
						</g>
					</g>
					<g>
						<path d="M112.5,116.3c-1.9,0-3.6-0.6-4.9-1.7c-1.7-1.5-2.7-3.6-2.8-6.4c-0.1-2.2,0.4-6.8,1.5-14.3l-3.1,0.7
							c-0.8,0.1-1.8,0-2.7-1.2c-0.3-0.4-0.5-0.7-0.6-1l-0.4-0.9l0.4-0.9c0.7-1.6,1.3-2.8,1.8-3.6l0.5-0.9l5.4-1l2.4-14.7l0.8-0.6
							c2.9-2.2,5.7-3.8,8.3-4.8l0.2-0.1c1-0.2,1.9,0,2.7,0.6c1.1,0.8,1.3,1.7,1.3,2.4l0,1.3l-1.1,0.7c-1.2,0.8-1.9,1.8-2.1,3
							c-0.4,2.2-1,5.5-1.7,10.1l12.7-2.3l-0.7,3.4c0,0,0,0,0,0.1c0,0.4,0.1,0.7,0.1,0.9c0,1.1-0.3,2-1,2.7c-0.5,0.5-1.3,0.9-2.2,1.1
							l-10.1,2.3c-1.5,9.6-1.7,13.3-1.7,14.7c0,0.4,0.1,0.8,0.2,0.9c0,0,0.1,0,0.2,0c0.2,0,0.4,0,0.7-0.1c1.6-0.3,3.5-1.3,5.6-3
							c2.3-1.8,4.6-4.1,6.9-6.9l1.7-2.1l1.9,2c0.7,0.7,1.1,1.6,1.1,2.6c0,0.5-0.1,1.2-0.3,2.1l-0.1,0.2c-0.7,1.9-2.1,3.9-4.4,6
							c-2.1,2-4.5,3.8-7.2,5.4c-2.7,1.6-5.2,2.6-7.4,3C113.9,116.3,113.1,116.3,112.5,116.3z"/>
						<path d="M112.5,117.1c-2.1,0-3.9-0.6-5.4-1.8c-1.9-1.6-3-4-3.1-7c-0.1-2.2,0.4-6.4,1.4-13.3l-2,0.5c-1.4,0.3-2.6-0.3-3.5-1.5
							c-0.3-0.4-0.5-0.8-0.7-1.2l-0.5-1.2l0.5-1.2c0.7-1.6,1.3-2.8,1.8-3.7l0.7-1.2l5.2-1l2.4-14.5l1-0.8c3-2.2,5.8-3.9,8.5-4.9
							l0.3-0.1c1.2-0.3,2.4,0,3.4,0.8c1.3,1,1.6,2.2,1.7,3l0.1,1.8l-1.5,1c-1,0.7-1.5,1.4-1.7,2.5c-0.4,2.1-0.9,5-1.5,9l12.7-2.3
							l-0.9,4.4c0,0.5,0.1,0.8,0.1,1c0,1.3-0.4,2.5-1.3,3.3c-0.7,0.7-1.5,1.1-2.6,1.3l-9.5,2.2c-1.4,9.2-1.6,12.7-1.6,14
							c0,0,0,0.1,0,0.1c0.1,0,0.1,0,0.2,0c1.5-0.3,3.2-1.2,5.2-2.8c2.2-1.8,4.5-4.1,6.7-6.8l2.3-2.8l2.5,2.6
							c0.8,0.9,1.3,1.9,1.3,3.1c0,0.6-0.1,1.3-0.3,2.3l-0.1,0.2c-0.8,2.1-2.3,4.1-4.7,6.4c-2.2,2-4.6,3.9-7.3,5.5
							c-2.8,1.6-5.4,2.7-7.6,3.1C114,117,113.2,117.1,112.5,117.1z M107.3,92.9l-0.2,1.2c-1.1,7.4-1.6,12-1.5,14.1
							c0.1,2.6,0.9,4.5,2.5,5.9c1.6,1.3,3.7,1.8,6.3,1.3c2.1-0.4,4.5-1.4,7.1-2.9c2.6-1.5,5-3.3,7-5.3c2.2-2.1,3.6-3.9,4.2-5.7
							l0-0.1c0.2-0.8,0.3-1.3,0.3-1.8c0-0.8-0.3-1.5-0.9-2l-1.2-1.3l-1.1,1.4c-2.3,2.8-4.7,5.2-7,7c-2.2,1.8-4.2,2.8-5.9,3.1
							c-0.3,0.1-0.6,0.1-0.8,0.1l-0.3,0.3l-0.6-0.5c-0.3-0.3-0.4-0.7-0.5-1.4c-0.1-2,0.5-7.1,1.7-14.8l0.1-0.5l10.6-2.5
							c0.8-0.1,1.4-0.4,1.8-0.9c0.5-0.5,0.8-1.3,0.8-2.1c0-0.2,0-0.5-0.1-0.9l0.7-0.1l-0.7-0.2l0.5-2.3l-12.6,2.3l0.2-1.1
							c0.7-4.5,1.3-7.9,1.7-10.1c0.3-1.5,1-2.6,2.4-3.5l0.7-0.5l0-0.9c0-0.7-0.4-1.3-1-1.8c-0.6-0.5-1.3-0.6-2-0.5l-0.2,0.1
							c-2.4,0.9-5.2,2.5-8,4.7l-0.5,0.4l-2.4,14.9l-5.6,1.1l-0.4,0.6c-0.5,0.8-1,1.9-1.7,3.5l-0.3,0.6l0.2,0.6
							c0.1,0.3,0.3,0.5,0.5,0.8c0.5,0.7,1.2,1,1.9,0.9L107.3,92.9z"/>
					</g>
				</g>
			</g>
			<g>
				<g>
					<g>
						<g>
							<path d="M147.6,107.2c-0.3,0-0.5,0-0.7-0.1c-0.1-0.1-0.4-0.3-0.5-1.1c0-1,0.3-3.3,0.9-7c0.6-3.7,1.5-8.9,2.8-15.6
								c0.8-4.3,1.5-8.2,2.1-12c0.5-3.1,0.8-5.1,0.9-6.1l0.1-1l-1,0.1c-0.1,0-0.2,0-0.2,0c-0.4,0.1-1.5,0.4-3.2,1
								c-2.4,0.8-4.1,1.4-5.3,1.6c-0.5,0.1-1,0.2-1.4,0.2c-0.3,0-0.6,0-0.8-0.1c-0.4-0.2-0.6-0.5-0.6-1.1c0-0.6,0.1-1.3,0.3-2.2
								c0.2-0.9,0.4-1.5,0.7-2l0,0c0.6,0.1,1.3,0.2,2.1,0.2c1.2,0,2.5-0.1,4-0.4c2.1-0.4,5.1-1.2,8.9-2.3c0.5-0.1,1.9-0.5,4.1-1.1
								c2.3-0.6,4.3-1.1,6.1-1.4c2.2-0.4,4.3-0.6,6-0.6c2.4,0,4.3,0.4,5.8,1.1c2.6,1.3,4.1,3.9,4.2,7.8c0.1,3.2-0.6,6.3-2.2,9.1
								c-1.6,2.8-3.8,5.2-6.5,7c-2.8,1.9-5.9,3.1-9.2,3.8c-1.2,0.2-2.3,0.3-3.1,0.3c-0.8,0-1.4-0.1-1.9-0.3c-1-0.4-1.5-1-1.5-1.9
								c0-0.4,0.1-0.8,0.3-1.2c0.2-0.4,0.4-0.7,0.7-1v0c0.4,0.2,1.1,0.4,2.1,0.4c0.2,0,0.4,0,0.6,0c0.8,0,1.8-0.1,2.8-0.3
								c2.5-0.5,4.7-1.4,6.4-2.8c1.8-1.4,3.1-3,4-5c0.9-1.9,1.3-4,1.2-6.2c-0.1-2.6-0.9-4.5-2.3-5.7c-1.1-0.9-2.7-1.4-4.7-1.4
								c-1,0-2,0.1-3.2,0.3c-1.8,0.3-3.4,0.8-4.8,1.5c-1.4,0.7-2.2,1.4-2.4,2.3c-0.8,3.7-2,10.8-3.6,21.2
								c-1.6,10.3-2.4,16.3-2.3,17.7c0,0.4,0.1,0.8,0.1,1.2c0.1,0.4,0.1,0.8,0.1,1.1l0,0c-1.7,0.8-3.3,1.3-4.6,1.5
								C148.2,107.2,147.9,107.2,147.6,107.2z"/>
						</g>
						<g>
							<path d="M172.9,57c2.2,0,4,0.4,5.4,1.1c2.4,1.2,3.6,3.5,3.7,7.1c0.1,3.1-0.6,6-2.1,8.7c-1.5,2.7-3.6,5-6.3,6.8
								c-2.7,1.8-5.7,3-8.9,3.7c-1.2,0.2-2.2,0.3-3,0.3c-0.9,0-1.3-0.1-1.6-0.2c-1-0.4-1-1-1-1.2c0-0.3,0.1-0.5,0.2-0.8
								c0.1-0.1,0.1-0.3,0.2-0.4c0.5,0.1,1.1,0.2,1.8,0.3c0.2,0,0.4,0,0.6,0c0.9,0,1.9-0.1,2.9-0.3c2.6-0.5,4.9-1.5,6.8-2.9
								c1.9-1.4,3.3-3.2,4.2-5.3c0.9-2,1.4-4.3,1.3-6.5c-0.1-2.9-1-5-2.6-6.3c-1.3-1-3-1.5-5.2-1.5c-1,0-2.1,0.1-3.4,0.3
								c-1.8,0.3-3.5,0.9-5,1.5c-1.7,0.8-2.6,1.7-2.9,2.9c-0.8,3.7-2,10.9-3.6,21.2c-2.4,15.6-2.4,17.3-2.3,17.9
								c0,0.4,0.1,0.8,0.1,1.3c0,0.2,0,0.3,0.1,0.5c-1.5,0.6-2.8,1-3.9,1.2c-0.4,0.1-0.7,0.1-0.9,0.1c-0.2,0-0.3,0-0.3,0
								c0,0-0.1-0.2-0.1-0.5c0-0.6,0.1-2.4,0.8-6.8c0.6-3.7,1.5-8.9,2.7-15.6c0.8-4.1,1.5-8.1,2.1-12c0.5-3.1,0.8-5.2,0.9-6.2
								l0.1-1.9l-1.9,0.2c-0.1,0-0.2,0-0.3,0c-0.3,0.1-1,0.2-3.3,1c-2.4,0.8-4,1.3-5.2,1.5c-0.5,0.1-0.9,0.1-1.2,0.1
								c-0.3,0-0.4,0-0.5-0.1c-0.1,0-0.1-0.3-0.1-0.4c0-0.5,0.1-1.1,0.3-1.9c0.1-0.5,0.3-1,0.4-1.3c0.5,0.1,1.1,0.1,1.6,0.1
								c1.2,0,2.6-0.1,4.1-0.4c2.1-0.4,5.1-1.2,9-2.3c0.5-0.1,1.9-0.5,4.2-1.1c2.2-0.6,4.2-1.1,6-1.4C169.2,57.2,171.2,57,172.9,57
								 M172.9,55.4c-1.8,0-3.9,0.2-6.2,0.7c-1.8,0.3-3.8,0.8-6.1,1.4c-2.2,0.6-3.6,1-4.2,1.1c-3.8,1.1-6.8,1.9-8.9,2.2
								c-1.4,0.3-2.7,0.4-3.8,0.4c-0.7,0-1.4-0.1-2-0.2l-0.6-0.1l-0.3,0.5c-0.3,0.5-0.5,1.2-0.8,2.2c-0.2,1-0.3,1.7-0.3,2.4
								c0,1.2,0.7,1.7,1.1,1.9c0.3,0.1,0.6,0.2,1,0.2c0.4,0,0.9-0.1,1.5-0.2c1.2-0.2,3-0.8,5.4-1.6c2-0.7,2.8-0.9,3.1-1
								c0.1,0,0.1,0,0.2,0c-0.1,0.8-0.3,2.4-0.9,6c-0.6,3.7-1.3,7.7-2.1,12c-1.2,6.7-2.1,11.9-2.8,15.6c-0.6,3.8-0.9,6.1-0.9,7.2
								c0,0.8,0.3,1.4,0.9,1.8c0.3,0.2,0.6,0.3,1.1,0.3c0.3,0,0.7,0,1.2-0.1c1.4-0.3,3-0.8,4.8-1.6l0.5-0.2l0-0.5
								c0-0.4-0.1-0.8-0.1-1.2c-0.1-0.4-0.1-0.7-0.1-1.1c0-1,0.3-4.8,2.3-17.6c1.6-10.3,2.8-17.4,3.5-21.1c0.2-0.8,1.2-1.4,2-1.8
								c1.4-0.6,2.9-1.1,4.6-1.4c1.1-0.2,2.1-0.3,3.1-0.3c1.8,0,3.2,0.4,4.2,1.2c1.2,1,1.9,2.7,2,5.1c0.1,2.1-0.3,4-1.1,5.8
								c-0.8,1.8-2.1,3.4-3.8,4.7c-1.7,1.3-3.7,2.2-6.1,2.6c-1,0.2-1.8,0.3-2.6,0.3c-0.2,0-0.4,0-0.5,0c-1.1-0.1-1.6-0.2-1.7-0.3
								l-0.5-0.3l-0.4,0.4c-0.3,0.3-0.6,0.7-0.8,1.2c-0.2,0.5-0.3,1-0.3,1.5c0,0.8,0.4,1.9,2,2.6c0.6,0.2,1.3,0.4,2.2,0.4
								c0.9,0,2-0.1,3.3-0.4c3.5-0.7,6.7-2,9.5-3.9c2.9-1.9,5.2-4.4,6.8-7.3c1.6-2.9,2.4-6.1,2.3-9.5c-0.2-4.2-1.7-7.1-4.6-8.5
								C177.4,55.8,175.3,55.4,172.9,55.4L172.9,55.4z"/>
						</g>
					</g>
					<g>
						<path d="M147.6,109.6c-0.8,0-1.4-0.2-2-0.5c-0.7-0.4-1.5-1.3-1.6-3c0-0.7,0-2.3,0.9-7.5c0.6-3.7,1.5-9,2.8-15.6
							c0.8-4.2,1.5-8.2,2.1-11.9c0.3-1.5,0.4-2.7,0.6-3.6c-0.3,0.1-0.5,0.2-0.9,0.3c-2.5,0.9-4.3,1.4-5.6,1.7
							c-1.5,0.3-2.6,0.3-3.5-0.1c-1.3-0.5-2.1-1.7-2.1-3.3c0-0.8,0.1-1.7,0.4-2.8c0.3-1.1,0.6-2,1-2.6l0.8-1.5l1.6,0.3
							c1.3,0.2,3.1,0.2,5.2-0.2c2-0.4,4.9-1.1,8.7-2.2c0.6-0.2,1.9-0.5,4.2-1.1c2.3-0.6,4.4-1.1,6.2-1.4c5.8-1.1,10.2-0.9,13.3,0.7
							c2.4,1.2,5.3,3.9,5.5,9.9c0.1,3.7-0.7,7.2-2.5,10.3c-1.7,3.1-4.2,5.8-7.3,7.8c-3,2.1-6.4,3.5-10.1,4.1c-2.9,0.6-5,0.5-6.4-0.1
							c-0.5-0.2-0.9-0.5-1.3-0.7c-2.1,13.3-2.2,16.1-2.2,16.7c0,0.3,0,0.6,0.1,0.9c0.1,0.5,0.1,1,0.1,1.4l0.1,1.6l-1.5,0.6
							c-1.9,0.8-3.6,1.4-5.1,1.7C148.5,109.5,148,109.6,147.6,109.6z M160.4,78.9c0,0,0.3,0.1,1.1,0.1c0.8,0,1.7,0,2.8-0.2
							c2.1-0.4,4-1.2,5.4-2.3c1.5-1.1,2.6-2.5,3.3-4.1c0.7-1.6,1.1-3.3,1-5.1c-0.1-1.9-0.5-3.2-1.4-3.9c-1.1-0.9-3.2-1.1-6-0.5
							c-1.6,0.3-3,0.7-4.2,1.3c-0.8,0.4-1.1,0.7-1.1,0.7c-0.5,2.6-1.3,7-2.3,13.2L160.4,78.9C160.4,78.9,160.4,78.9,160.4,78.9z"/>
						<path d="M147.6,110.4c-0.9,0-1.7-0.2-2.4-0.6c-0.7-0.4-1.9-1.5-2-3.7c0-0.8,0-2.5,0.9-7.6c0.6-3.8,1.5-9,2.8-15.6
							c0.8-4.2,1.5-8.2,2.1-11.9c0.1-0.9,0.3-1.6,0.4-2.3c-2.3,0.8-4.1,1.3-5.4,1.6c-1.7,0.3-2.9,0.3-3.9-0.1
							c-1.6-0.6-2.6-2.1-2.6-4c0-0.8,0.1-1.8,0.4-3c0.3-1.2,0.6-2.1,1-2.8l1.1-1.9l2.2,0.4c1.2,0.2,2.9,0.1,4.9-0.2
							c2-0.4,4.9-1.1,8.6-2.2c0.6-0.2,1.8-0.5,3.9-1l0.3-0.1c2.3-0.6,4.5-1.1,6.3-1.5c6-1.1,10.5-0.9,13.8,0.8
							c2.6,1.3,5.7,4.2,6,10.6c0.1,3.8-0.7,7.5-2.6,10.8c-1.8,3.2-4.3,6-7.5,8.1c-3.1,2.1-6.6,3.6-10.4,4.3
							c-3.1,0.6-5.3,0.5-6.9-0.2c-0.1,0-0.2-0.1-0.3-0.2c-1.9,12.6-2,14.9-2,15.3c0,0.3,0,0.5,0.1,0.8c0.1,0.5,0.1,1,0.1,1.5
							l0.1,2.2l-2,0.9c-2,0.9-3.7,1.4-5.3,1.7C148.6,110.3,148.1,110.4,147.6,110.4z M151.3,66.3l-0.2,1.3c-0.1,0.9-0.3,2.1-0.6,3.6
							c-0.6,3.7-1.3,7.7-2.1,11.9c-1.2,6.6-2.1,11.9-2.8,15.6c-0.9,5.7-0.9,6.9-0.9,7.3c0,1.1,0.5,1.9,1.2,2.4
							c0.7,0.4,1.5,0.5,2.9,0.2c1.4-0.3,3.1-0.8,5-1.6l1-0.4l0-1.1c0-0.4-0.1-0.8-0.1-1.3c0-0.3-0.1-0.7-0.1-1
							c0-0.7,0.2-3.9,2.2-16.8l0.2-1.3l1.1,0.8c0.3,0.2,0.7,0.5,1.1,0.6c1.3,0.6,3.2,0.6,6,0.1c3.6-0.7,6.9-2,9.8-4
							c3-2,5.3-4.6,7-7.6c1.7-3,2.5-6.4,2.4-9.9c-0.2-5.6-2.9-8.1-5.1-9.2c-3-1.5-7.2-1.7-12.8-0.6c-1.8,0.3-3.9,0.8-6.2,1.4
							l-0.3,0.1c-2.1,0.5-3.4,0.9-3.9,1c-3.8,1.1-6.8,1.8-8.8,2.2c-2.2,0.4-4.1,0.5-5.5,0.2l-1.1-0.2l-0.6,1
							c-0.3,0.6-0.6,1.3-0.9,2.4c-0.3,1-0.4,1.9-0.3,2.6c0,1.2,0.7,2.2,1.6,2.6c0.7,0.3,1.6,0.3,3,0c1.2-0.2,3-0.8,5.5-1.6
							L151.3,66.3z M161.9,79.9c-0.2,0-0.3,0-0.5,0c-0.7,0-1.1-0.1-1.2-0.1l0.1-0.7l-0.3,0.7l-0.6-0.3l0,0l-1.4-0.8l0.1-0.6
							c1-6.1,1.8-10.6,2.3-13.2l0.1-0.2c0.2-0.3,0.7-0.7,1.5-1.1c1.3-0.6,2.8-1.1,4.4-1.4c3.1-0.6,5.3-0.3,6.6,0.7
							c1.1,0.8,1.6,2.4,1.7,4.5c0.1,1.9-0.3,3.8-1.1,5.5c-0.8,1.7-2,3.2-3.5,4.4c-1.6,1.2-3.5,2-5.8,2.5
							C163.5,79.8,162.7,79.9,161.9,79.9z M160.7,78.2c0.1,0,0.4,0.1,0.8,0.1c0.7,0,1.6,0,2.6-0.2c2-0.4,3.7-1.1,5.1-2.2
							c1.4-1,2.4-2.3,3.1-3.8c0.7-1.5,1-3.1,0.9-4.8c-0.1-1.6-0.4-2.8-1.1-3.3c-0.9-0.7-2.8-0.9-5.3-0.4c-1.5,0.3-2.9,0.7-4.1,1.2
							c-0.4,0.2-0.6,0.3-0.7,0.4c-0.5,2.6-1.2,6.7-2.1,12.4L160.7,78.2z"/>
					</g>
				</g>
			</g>
			<g>
				<g>
					<g>
						<path d="M196.3,100.1c-1.5,0-2.9-0.2-4.2-0.7c-2.1-0.8-3.7-1.8-4.9-3.1c-1.3-1.5-1.9-2.7-2-3.9l0-0.2l0-0.3
							c0.3-1.2,0.5-2.5,0.7-4.1c0.2-1.6,0.4-2.8,0.5-3.4c0.1-0.7,0.2-1.7,0.4-2.8c0.2-1.1,0.4-2.4,0.6-3.9c0.2-1.4,1.2-2.9,2.9-4.6
							c1.5-1.4,3.1-2.7,5-3.9c2-1.2,3.7-1.9,5.1-2.2c1.3-0.2,2.7-0.2,4.4,0.1c1.7,0.3,3.2,1,4.5,1.9c1.6,1.2,2.5,2.8,2.5,4.8
							c0.1,2.2-0.9,4.5-2.8,6.7c-1.7,2-4,3.8-6.6,5.4c-2.1,1.2-4.2,2.2-6.3,2.8l-0.1,0.9c0.1,0.5,0.4,0.8,0.9,1.1
							c0.4,0.2,1.3,0.6,3.5,0.2c1.9-0.4,4-1.2,6.1-2.5c2.2-1.3,4.2-3,6.1-4.9c1.8-1.9,3.2-4,4.2-6.1l0.8-1.8l1.9,0.5
							c1.8,0.5,2.9,1.8,3,3.5c0.1,2.6-1.2,5.3-3.9,8.4c-2.4,2.7-5.4,5.2-9,7.4c-3.6,2.2-7.1,3.7-10.3,4.3
							C198.5,100,197.4,100.1,196.3,100.1z M201.2,74.7c-0.1,0-0.1,0-0.2,0c-0.5,0.1-1.1,0.6-1.8,1.3c-0.7,0.9-1.2,1.8-1.4,2.4
							l-0.3,1.9c0.8-0.4,1.5-1,2.1-1.5c1.3-1.2,1.9-2.3,1.9-3.4c0-0.3-0.1-0.5-0.1-0.6C201.3,74.7,201.3,74.7,201.2,74.7z"/>
						<path d="M196.3,100.9c-1.6,0-3.1-0.2-4.4-0.7c-2.2-0.8-4-1.9-5.2-3.3c-1.5-1.6-2.1-3-2.2-4.4l0-0.2l0.1-0.4
							c0.3-1.2,0.5-2.6,0.7-4.1c0.2-1.7,0.4-2.8,0.5-3.4c0.1-0.7,0.2-1.6,0.4-2.7c0.2-1.1,0.4-2.4,0.6-3.9c0.3-1.6,1.2-3.2,3.1-5
							c1.5-1.5,3.2-2.8,5.2-4c2.1-1.2,3.8-2,5.4-2.3c1.4-0.3,2.9-0.2,4.7,0.1c1.8,0.4,3.5,1,4.8,2.1c1.8,1.3,2.8,3.2,2.9,5.4
							c0.1,2.4-0.9,4.9-3,7.3c-1.8,2.1-4.1,3.9-6.8,5.5c-2,1.2-4,2.1-6,2.7l0,0.2c0.1,0.2,0.2,0.3,0.5,0.5c0.1,0.1,0.8,0.4,2.9,0
							c1.8-0.3,3.8-1.1,5.8-2.4c2.1-1.3,4.1-2.9,5.9-4.8c1.7-1.9,3.1-3.8,4-5.9l1.1-2.4l2.6,0.7c2.1,0.6,3.5,2.2,3.5,4.2
							c0.1,2.8-1.2,5.7-4.1,8.9c-2.4,2.8-5.5,5.3-9.2,7.6c-3.7,2.3-7.2,3.7-10.5,4.4C198.6,100.8,197.4,100.9,196.3,100.9z
							 M202.4,67.8c-0.6,0-1.1,0-1.6,0.1c-1.4,0.3-2.9,0.9-4.8,2.1c-1.8,1.1-3.5,2.4-4.9,3.7c-1.6,1.6-2.5,2.9-2.7,4.1
							c-0.3,1.5-0.5,2.7-0.6,3.8c-0.2,1.1-0.3,2.1-0.4,2.7c-0.1,0.7-0.3,1.8-0.5,3.4c-0.2,1.6-0.5,2.9-0.8,4.1l0,0.2l0,0.1
							c0,1,0.6,2,1.8,3.4c1.1,1.2,2.6,2.2,4.6,2.9c2,0.7,4.3,0.8,7,0.3c3.1-0.6,6.5-2,10-4.2c3.5-2.2,6.5-4.6,8.8-7.3
							c2.5-2.9,3.7-5.5,3.7-7.8c0-1.4-0.9-2.4-2.4-2.8l-1.3-0.3l-0.6,1.2c-1,2.2-2.5,4.3-4.3,6.3c-1.9,2-4,3.7-6.2,5.1
							c-2.2,1.3-4.3,2.2-6.4,2.6c-1.9,0.4-3.3,0.3-4.1-0.3c-0.7-0.4-1.1-0.9-1.2-1.6l0-0.2l0.2-1.5l0.5-0.1c2-0.6,4.1-1.5,6.2-2.7
							c2.6-1.5,4.7-3.3,6.4-5.2c1.8-2.1,2.7-4.2,2.6-6.2c-0.1-1.7-0.8-3.2-2.2-4.2c-1.2-0.9-2.6-1.5-4.2-1.8
							C204,67.9,203.2,67.8,202.4,67.8z M196.6,81.8l0.5-3.5c0.2-0.9,0.7-1.8,1.5-2.8c0.8-0.9,1.5-1.5,2.2-1.6
							c0.4-0.1,0.7,0,1.1,0.2c0.2,0.1,0.4,0.4,0.4,1.2c0,1.3-0.7,2.7-2.1,4c-0.7,0.6-1.4,1.2-2.2,1.7L196.6,81.8z M200.8,75.6
							c-0.2,0.1-0.5,0.4-0.9,0.9c-0.7,0.8-1.1,1.5-1.2,2.1v0c0.2-0.1,0.3-0.3,0.5-0.4C200.2,77.3,200.7,76.4,200.8,75.6z"/>
					</g>
				</g>
			</g>
			<g>
				<g>
					<g>
						<path d="M222.4,95.5C222.4,95.5,222.4,95.5,222.4,95.5c-1.1,0-2.2-0.2-3.2-0.6c-1.5-0.6-2.8-1.4-3.9-2.6
							c-1.2-1.3-1.9-2.7-2-4.3l0-0.2l0-0.3c0.9-4.6,1.6-9.1,2.3-13.3c0.2-1.4,1.1-2.9,2.7-4.8c1.4-1.7,3.1-3.3,5.1-4.7
							c2.1-1.5,4.2-2.4,6.2-2.8c1.3-0.2,2.6-0.2,3.9,0c0,0,0.1-0.1,0.1-0.1c0.5-0.6,1.1-1.1,2-1.3l6.7-1.6l4.1,1.8l-2.4,2.4
							c-0.3,0.3-0.5,0.6-0.7,0.9c-0.2,0.5-0.4,1-0.5,1.6c-0.7,2.7-1.4,6-2.1,9.8c-0.8,4.6-1,6.6-0.9,7.4c0,0.7,0.2,1.3,0.6,1.8
							c0,0,0.1,0.1,0.5,0c0.6-0.1,1.7-0.6,3.4-2c1.5-1.3,3-3,4.3-5.1c1.3-2.1,2.2-4.3,2.8-6.7l0.4-1.5l1.5-0.3c1-0.2,1.9,0,2.7,0.6
							c0.9,0.7,1.3,1.8,1.4,3.3c0.1,2.5-0.8,5.3-2.7,8.3c-1.8,2.8-4,5.3-6.7,7.4c-2.8,2.2-5.4,3.6-7.9,4c-2.2,0.4-4.3,0.1-6-0.8
							c-0.7-0.4-1.3-0.8-1.8-1.3c-0.8,0.8-1.7,1.6-2.7,2.3c-2,1.4-3.7,2.3-5.4,2.6C223.4,95.5,222.9,95.5,222.4,95.5z M224.4,85.2
							c0.1,0.4,0.3,0.7,0.6,1c0.1,0.1,0.2,0.2,0.2,0.2c0.2-0.1,0.5-0.3,1-0.7c0.7-0.6,1.4-1.4,2-2.4c0.6-0.9,1-1.9,1.2-2.9l0.9-5
							c0.4-2.3,0.7-4.1,0.9-5.5c-0.1,0-0.3,0-0.4,0.1c-1.5,0.3-2.4,0.8-3.1,1.8c-0.8,1.2-1.3,2.4-1.6,3.8L224.4,85.2z"/>
						<path d="M222.4,96.3L222.4,96.3c-1.2,0-2.3-0.2-3.5-0.7c-1.6-0.6-3-1.5-4.2-2.8c-1.3-1.4-2.1-3-2.2-4.8l0-0.2l0-0.5
							c0.9-4.6,1.6-9.1,2.3-13.3c0.2-1.5,1.1-3.2,2.8-5.2c1.5-1.8,3.2-3.4,5.3-4.9c2.2-1.6,4.4-2.5,6.5-2.9c1.2-0.2,2.4-0.3,3.7-0.1
							c0.5-0.6,1.3-1.1,2.2-1.4l7-1.7l5.4,2.4l-3.2,3.3c-0.2,0.2-0.4,0.5-0.5,0.7c-0.2,0.4-0.4,0.9-0.5,1.5
							c-0.7,2.7-1.4,5.9-2.1,9.7c-0.9,4.8-1,6.6-0.9,7.3c0,0.4,0.1,0.7,0.2,1c0.5-0.1,1.4-0.5,3-1.8c1.5-1.2,2.8-2.9,4.1-4.9
							c1.3-2,2.2-4.2,2.7-6.5l0.5-2l2-0.4c1.2-0.2,2.4,0,3.3,0.8c1.1,0.9,1.6,2.2,1.7,3.9c0.1,2.7-0.8,5.6-2.8,8.8
							c-1.8,2.9-4.1,5.4-6.8,7.6c-2.9,2.3-5.7,3.7-8.3,4.2c-2.4,0.5-4.6,0.1-6.6-0.9c-0.5-0.3-1-0.6-1.4-0.9
							c-0.7,0.7-1.4,1.3-2.2,1.9c-2.1,1.5-3.9,2.4-5.7,2.7C223.5,96.3,223,96.3,222.4,96.3z M231.5,62.5c-0.6,0-1.2,0.1-1.8,0.2
							c-1.9,0.4-3.9,1.3-5.9,2.7c-1.9,1.4-3.6,2.9-5,4.6c-1.5,1.8-2.3,3.2-2.5,4.5c-0.6,4.3-1.4,8.7-2.3,13.3l0,0.3l0,0.1
							c0.1,1.4,0.7,2.7,1.8,3.8c1,1.1,2.2,1.9,3.6,2.4c1,0.4,2,0.6,2.9,0.6h0c0.5,0,1,0,1.4-0.1c1.6-0.3,3.2-1.1,5.1-2.4
							c0.9-0.7,1.8-1.4,2.5-2.2l0.5-0.6l0.6,0.5c0.5,0.5,1,0.9,1.6,1.2c1.6,0.9,3.5,1.1,5.5,0.8c2.4-0.4,4.9-1.8,7.6-3.9
							c2.6-2.1,4.8-4.5,6.5-7.2c1.8-2.8,2.7-5.5,2.6-7.9c0-1.3-0.4-2.2-1.1-2.7c-0.6-0.5-1.3-0.6-2-0.5l-1,0.2l-0.2,1
							c-0.6,2.5-1.6,4.8-2.9,7c-1.4,2.2-2.8,3.9-4.4,5.3c-1.5,1.3-2.8,2-3.8,2.2c-0.8,0.1-1.2-0.1-1.3-0.4c-0.4-0.6-0.6-1.3-0.7-2.2
							c0-1.3,0.3-3.9,1-7.6c0.7-3.8,1.4-7.1,2.1-9.8c0.2-0.6,0.4-1.2,0.6-1.7c0.2-0.4,0.4-0.8,0.8-1.2l1.6-1.6l-2.8-1.2l-6.4,1.6
							c-0.6,0.2-1.2,0.6-1.5,1l-0.3,0.4l-0.6,0C232.7,62.5,232.1,62.5,231.5,62.5z M225.1,87.3l-0.4-0.3c-0.1-0.1-0.2-0.1-0.3-0.3
							c-0.4-0.4-0.7-0.9-0.8-1.4l0-0.2l1.7-9.9c0.3-1.4,0.8-2.8,1.7-4.1c0.8-1.1,1.9-1.8,3.6-2.1c0.2,0,0.3-0.1,0.5-0.1L232,69
							l-0.2,1.1c-0.2,1.4-0.5,3.2-0.9,5.5l-0.9,5c-0.2,1.1-0.7,2.2-1.3,3.2c-0.7,1-1.4,1.9-2.1,2.6c-0.5,0.5-0.9,0.7-1.1,0.8
							L225.1,87.3z M225.2,85.1c0,0.1,0.1,0.2,0.1,0.2c0.1-0.1,0.2-0.2,0.3-0.3c0.6-0.6,1.2-1.3,1.8-2.2c0.5-0.8,0.9-1.7,1.1-2.7
							l0.9-4.9c0.3-1.7,0.5-3.1,0.7-4.3c-0.9,0.3-1.5,0.7-1.9,1.3c-0.7,1.1-1.2,2.2-1.4,3.5L225.2,85.1z"/>
					</g>
				</g>
			</g>
			<g>
				<g>
					<g>
						<path d="M259.8,88.2c-1.4,0-2.8-0.2-4.1-0.7c-2.1-0.7-3.8-1.7-5.1-3c-1.5-1.5-2.3-2.9-2.4-4.3l0-0.2l0-0.3
							c0.8-3.4,1.3-6.1,1.7-8c0.3-1.9,0.7-4.1,1.1-6.4c0.2-1.3,1-2.8,2.6-4.4c1.3-1.4,2.9-2.6,4.8-3.7c1.9-1.2,3.8-1.9,5.4-2.3
							c2.1-0.4,4.2-0.3,6.2,0.4c2.6,0.8,4.2,2.8,4.2,5.3c0.1,1.9-0.7,4.7-4.9,7l-0.6,0.3l-3-0.1l-0.2-2.1c-0.1-1.1-0.4-2-1-2.7
							c-0.3-0.4-0.5-0.5-0.6-0.5c-0.1,0-0.7,0.2-1.6,1.3c-1,1.2-1.2,1.9-1.2,2.1c-0.6,3.7-1.2,7.8-2,12.4c0.2,0.7,0.5,1,0.7,1.1
							c0,0,0.7,0.4,3.1-0.1c2.5-0.5,5.2-1.7,8-3.7c2.6-1.9,4.7-5.1,6.3-9.5l0.4-1.3l1.4-0.3c1.1-0.2,2.1,0,2.8,0.6
							c0.9,0.7,1.3,1.8,1.4,3.2c0.1,2.7-1.1,5.5-3.6,8.5c-2.3,2.7-5,5.1-8.3,7.1c-3.3,2.1-6.3,3.4-8.9,3.9
							C261.5,88.1,260.6,88.2,259.8,88.2z"/>
						<path d="M259.8,89c-1.5,0-3-0.2-4.4-0.7c-2.2-0.8-4-1.8-5.4-3.2c-1.7-1.6-2.5-3.2-2.6-4.8l0-0.2l0.1-0.4
							c0.8-3.4,1.3-6.1,1.7-8c0.3-1.9,0.7-4,1.1-6.4c0.2-1.5,1.1-3.1,2.8-4.8c1.4-1.4,3-2.7,4.9-3.9c2-1.2,3.9-2,5.7-2.4
							c2.2-0.4,4.5-0.3,6.6,0.4c2.9,0.9,4.7,3.1,4.8,6c0.1,2.2-0.8,5.3-5.4,7.7l-0.8,0.4l-3.9-0.2l-0.3-2.7
							c-0.1-0.9-0.4-1.7-0.9-2.3c0,0,0,0,0,0c-0.2,0.2-0.5,0.4-0.9,0.9c-1,1.1-1.1,1.7-1.1,1.7c-0.5,3.6-1.2,7.7-2,12.2
							c0.1,0.4,0.3,0.5,0.4,0.5c0,0,0.1,0,0.6,0c0.4,0,1,0,1.9-0.2c2.4-0.5,5-1.7,7.6-3.6c2.5-1.8,4.5-4.9,6-9.2l0.6-1.7l1.8-0.3
							c1.3-0.2,2.5,0,3.5,0.8c1.1,0.8,1.6,2.1,1.7,3.8c0.1,2.9-1.2,5.9-3.8,9c-2.3,2.7-5.2,5.2-8.5,7.3c-3.4,2.2-6.5,3.5-9.2,4
							C261.6,88.9,260.7,89,259.8,89z M266.2,55.5c-0.7,0-1.5,0.1-2.2,0.2c-1.6,0.3-3.3,1-5.2,2.2c-1.8,1.1-3.3,2.3-4.6,3.6
							c-1.5,1.5-2.3,2.8-2.4,3.9c-0.4,2.4-0.7,4.5-1.1,6.4c-0.4,1.9-0.9,4.6-1.7,8l0,0.2l0,0.1c0,1.2,0.7,2.4,2.1,3.7
							c1.2,1.2,2.8,2.1,4.8,2.8c2,0.7,4.1,0.8,6.3,0.4c2.5-0.5,5.4-1.8,8.7-3.8c3.2-2,5.9-4.4,8.1-7c2.4-2.8,3.5-5.5,3.4-7.9
							c0-1.2-0.4-2-1.1-2.6c-0.6-0.5-1.4-0.6-2.2-0.5l-0.9,0.2l-0.3,0.9c-1.6,4.6-3.8,7.9-6.6,9.9c-2.9,2.1-5.6,3.3-8.3,3.8
							c-2.5,0.5-3.4,0.1-3.7-0.1c-0.5-0.3-0.8-0.9-1-1.6l-0.1-0.2l0-0.2c0.8-4.6,1.5-8.7,2-12.3c0.1-0.5,0.4-1.3,1.4-2.5
							c0.7-0.8,1.3-1.3,1.9-1.6l0.3-0.1l0.3,0.1c0.4,0.1,0.7,0.5,0.9,0.8c0.7,0.9,1.1,1.9,1.2,3.1l0.1,1.4l2.1,0.1L269,67
							c3-1.7,4.6-3.8,4.5-6.3c-0.1-2.2-1.4-3.8-3.7-4.6C268.6,55.7,267.4,55.5,266.2,55.5z"/>
					</g>
				</g>
			</g>
			<g>
				<g>
					<g>
						<g>
							<path d="M277.5,82.3c-0.7,0-1.1-0.1-1.3-0.3c-0.1-0.1-0.1-0.2-0.1-0.3l0.4-2.5c1.1-5.9,1.8-10,2.2-12.4
								c0.4-2.3,0.7-4.1,0.9-5.3c0.2-1.8,0.7-4.6,1.2-8.3c1.5-10,3.8-18.5,6.8-25.3c2.9-6.8,6.3-12,10.1-15.5
								c3.7-3.5,7.7-5.7,11.9-6.5c1.1-0.2,2.2-0.3,3.1-0.3c1.9,0,3.5,0.4,4.9,1.2c2,1.2,3.5,2.8,4.4,4.8c0.9,2,1.3,4,1.4,5.9
								l-0.4,1.1c-1.1-2.8-2.7-4.7-4.5-5.7c-1.2-0.6-2.7-1-4.3-1c-1,0-2,0.1-3.1,0.3c-6.3,1.2-11.5,5.1-15.4,11.5
								c-3.9,6.4-7,16.1-9,28.6c-0.2,1.3-0.7,4.2-1.5,8.6l-0.6,3.3l2-2.7c1.4-1.8,2.8-3.6,4.4-5.3c2.4-2.6,4.1-4,5.2-4.2
								c0.1,0,0.3,0,0.5,0c0.6,0,1.4,0.2,2.4,0.5c1.3,0.4,2,0.8,2,1.1c-0.7,3-1.5,6.6-2.2,10.7c-0.7,4-1.1,6.9-1,8.6
								c0,1.1,0.4,2,0.9,2.4c0.4,0.3,0.9,0.5,1.6,0.5c0.3,0,0.6,0,1-0.1c1.8-0.3,3.7-1.3,5.5-3c1.9-1.6,3.6-3.6,5-5.8
								c1.5-2.2,2.5-4.3,3.1-6.1h0c0.3,0.1,0.6,0.2,0.7,0.3c0.1,0.1,0.3,0.2,0.3,0.9c0,0.5,0,1-0.1,1.5c-0.3,1.7-1.4,3.7-3.1,6.1
								c-1.7,2.3-3.8,4.5-6.3,6.3c-2.4,1.9-4.9,3.1-7.3,3.5c-0.6,0.1-1.2,0.2-1.8,0.2c-1.4,0-2.5-0.4-3.4-1.1c-1.2-1-1.9-2.7-2-4.9
								c-0.1-1.5,0.1-3.4,0.5-5.6c0.4-2,1-4.9,1.8-8.5l0.4-2l-1.7,1.2c-0.5,0.4-1.2,1-2,1.8c-1.3,1.3-2.7,3-4.1,4.9
								c-1.4,1.9-2.5,3.9-3.2,5.7c-0.2,0.8-0.4,2.6-0.7,4.9l-0.6,3.9c-0.1,1-0.3,1.7-0.5,1.9c-0.2,0.3-0.5,0.4-1.1,0.5
								c-1,0.2-1.9,0.3-2.7,0.3L277.5,82.3z"/>
						</g>
						<g>
							<path d="M312.7,6.3c1.7,0,3.2,0.4,4.5,1.1c1.9,1.1,3.3,2.6,4.1,4.4c0.5,1.3,0.9,2.5,1.1,3.7c-1-1.6-2.2-2.8-3.6-3.5
								c-1.3-0.7-2.9-1-4.7-1c-1,0-2.1,0.1-3.2,0.3c-6.5,1.2-11.9,5.2-16,11.9c-4,6.5-7.1,16.3-9.1,28.9c-0.2,1.3-0.7,4.2-1.5,8.6
								l-1.1,6.5l3.9-5.3c1.3-1.8,2.8-3.6,4.3-5.2c3-3.3,4.2-3.9,4.7-4c0.1,0,0.2,0,0.3,0c0.5,0,1.3,0.1,2.2,0.4
								c0.8,0.2,1.1,0.4,1.3,0.5c-0.7,3-1.4,6.4-2.1,10.3c-0.8,4.2-1.1,7-1,8.7c0.1,1.4,0.5,2.4,1.2,3c0.5,0.4,1.2,0.6,2.1,0.6
								c0.3,0,0.7,0,1.1-0.1c1.9-0.4,3.9-1.4,5.9-3.2c1.9-1.7,3.7-3.7,5.2-6c1.1-1.7,2-3.4,2.6-4.9c0,0.3-0.1,0.6-0.1,1
								c-0.3,1.6-1.3,3.5-3,5.7c-1.7,2.3-3.7,4.3-6.1,6.2c-2.3,1.8-4.7,2.9-6.9,3.4c-0.6,0.1-1.1,0.2-1.7,0.2
								c-1.2,0-2.1-0.3-2.9-0.9c-1.1-0.9-1.6-2.3-1.7-4.3c-0.1-1.5,0.1-3.3,0.5-5.4c0.4-2,1-4.9,1.8-8.5l0.9-4.1l-3.4,2.4
								c-0.5,0.4-1.2,1-2.1,1.9c-1.3,1.4-2.7,3-4.1,5c-1.4,2-2.5,4-3.3,5.9l-0.1,0.1l0,0.1c-0.1,0.7-0.4,2.4-0.7,4.7l-0.6,4
								c-0.2,1.3-0.3,1.5-0.3,1.5c0,0.1-0.2,0.2-0.6,0.2c-0.9,0.2-1.8,0.3-2.6,0.3c-0.1,0-0.2,0-0.4,0c-0.3,0-0.5,0-0.6-0.1l0.3-2.2
								c1.2-6.4,1.9-10.2,2.2-12.4c0.4-2.3,0.7-4.1,0.9-5.4c0.2-1.8,0.7-4.6,1.2-8.2c1.5-9.9,3.8-18.4,6.7-25.1
								c2.9-6.7,6.2-11.8,9.9-15.3c3.6-3.4,7.5-5.5,11.5-6.3C310.7,6.4,311.7,6.3,312.7,6.3 M312.7,4.7c-1,0-2.1,0.1-3.3,0.3
								c-4.3,0.8-8.4,3.1-12.3,6.7c-3.8,3.6-7.3,8.9-10.3,15.8c-3,6.9-5.3,15.4-6.8,25.5c-0.6,3.7-1,6.5-1.2,8.3
								c-0.2,1.2-0.5,3-0.9,5.3c-0.4,2.3-1.1,6.5-2.2,12.4l-0.4,2.6c0,0.3,0.1,0.6,0.3,0.9c0.4,0.4,0.9,0.6,1.9,0.6
								c0.1,0,0.3,0,0.4,0c0.9,0,1.9-0.1,2.9-0.3c0.7-0.1,1.2-0.4,1.6-0.8c0.2-0.3,0.4-0.7,0.7-2.3l0.6-4c0.3-2.5,0.5-4.1,0.6-4.7
								c0.7-1.8,1.8-3.7,3.1-5.6c1.4-1.9,2.7-3.5,4-4.8c1-1,1.5-1.4,1.9-1.7c-0.8,3.6-1.4,6.5-1.8,8.6c-0.4,2.2-0.6,4.2-0.5,5.8
								c0.1,2.5,0.8,4.3,2.3,5.5c1,0.8,2.3,1.3,3.9,1.3c0.6,0,1.3-0.1,1.9-0.2c2.5-0.5,5.1-1.7,7.6-3.7c2.5-1.9,4.6-4.1,6.4-6.5
								c1.8-2.5,2.9-4.5,3.3-6.4c0.1-0.6,0.2-1.2,0.2-1.7c0-0.7-0.2-1.2-0.6-1.5c-0.3-0.2-0.7-0.4-1.1-0.5l-0.7-0.2l-0.2,0.7
								c-0.5,1.8-1.5,3.8-3,5.9c-1.4,2.2-3.1,4.1-4.9,5.7c-1.8,1.5-3.5,2.5-5.2,2.8c-0.3,0.1-0.6,0.1-0.8,0.1
								c-0.5,0-0.8-0.1-1.1-0.3c-0.4-0.3-0.6-0.9-0.6-1.8c-0.1-1.6,0.3-4.4,1-8.4c0.7-4,1.5-7.6,2.2-10.6l0-0.1l0-0.1
								c0-0.8-1-1.3-2.5-1.8c-1.1-0.3-2-0.5-2.7-0.5c-0.2,0-0.4,0-0.6,0.1c-0.8,0.1-2.2,0.8-5.6,4.5c-1.6,1.7-3,3.5-4.4,5.4
								c0.8-4.4,1.2-7.3,1.5-8.7c2-12.5,5-22,8.9-28.3c3.8-6.2,8.8-10,14.9-11.1c1.1-0.2,2-0.3,3-0.3c1.5,0,2.9,0.3,4,0.9
								c1.7,0.9,3.1,2.7,4.2,5.3l0.7,1.8l1.2-3l0-0.2c-0.1-2-0.6-4.1-1.5-6.2c-0.9-2.1-2.5-3.9-4.7-5.2h0
								C316.4,5.1,314.7,4.7,312.7,4.7L312.7,4.7z"/>
						</g>
					</g>
					<g>
						<path d="M277.9,84.7c-0.2,0-0.3,0-0.5,0c-0.9,0-2.2-0.2-3-1.1c-0.5-0.6-0.8-1.3-0.7-2.1l0.4-2.7c1.1-6,1.8-10.1,2.2-12.4
							c0.4-2.3,0.7-4.1,0.9-5.3c0.2-1.8,0.7-4.6,1.2-8.3c1.6-10.2,3.9-18.9,6.9-25.9c3.1-7.1,6.7-12.6,10.6-16.3
							c4.1-3.8,8.5-6.2,13.1-7.1c3.8-0.7,7.1-0.3,9.6,1.1c2.5,1.4,4.3,3.4,5.4,5.9c1,2.3,1.5,4.5,1.6,6.8l0,0.5l-2.8,7l-2.2-5.5
							c-0.9-2.3-2.1-3.8-3.4-4.5c-1.4-0.7-3.4-0.9-5.9-0.4c-5.6,1.1-10.3,4.6-13.8,10.4c-3.8,6.2-6.7,15.5-8.7,27.8
							c-0.1,0.6-0.2,1.5-0.4,2.7c0.2-0.2,0.4-0.5,0.6-0.7c3.6-4,5.3-4.8,6.5-5c1-0.2,2.3,0,4,0.5c1.3,0.4,3.6,1.1,3.7,3.3l0,0.2
							l0,0.3c-0.8,3.1-1.5,6.7-2.2,10.6c-0.9,4.8-1,7-1,8c0,0.3,0,0.5,0.1,0.6c0.1,0,0.3,0,0.5-0.1c1.4-0.3,2.9-1.1,4.4-2.4
							c1.7-1.5,3.3-3.3,4.6-5.3c1.3-2,2.3-3.9,2.8-5.5l0.6-2.1l2.2,0.5c0.7,0.2,1.3,0.4,1.8,0.9c0.7,0.6,1.1,1.5,1.1,2.7
							c0,0.7,0,1.4-0.2,2.1c-0.4,2.1-1.6,4.3-3.5,7c-1.9,2.5-4.1,4.8-6.7,6.8c-2.7,2.1-5.5,3.4-8.3,4c-2.9,0.6-5.3,0.1-7.1-1.4
							c-1.8-1.5-2.7-3.7-2.8-6.6c-0.1-1.7,0.1-3.8,0.6-6.1c0.2-0.9,0.4-2,0.6-3.3c-0.6,0.8-1.2,1.6-1.9,2.5
							c-1.2,1.7-2.2,3.4-2.9,5.1c-0.1,0.6-0.3,2-0.6,4.4l-0.6,4c-0.2,1.5-0.5,2.4-1,3c-0.6,0.7-1.4,1.2-2.5,1.4
							C280,84.6,278.9,84.7,277.9,84.7z"/>
						<path d="M277.9,85.5c-0.2,0-0.3,0-0.5,0c-1,0-2.5-0.2-3.6-1.4c-0.7-0.7-1-1.7-0.9-2.6l0.4-2.8c1.1-6,1.8-10.1,2.2-12.5
							c0.4-2.3,0.7-4.1,0.9-5.2c0.2-1.8,0.7-4.6,1.2-8.3c1.6-10.3,3.9-19,7-26.1c3.1-7.2,6.8-12.8,10.8-16.6
							c4.2-3.9,8.7-6.4,13.5-7.3c4-0.8,7.4-0.3,10.2,1.2c2.6,1.5,4.5,3.6,5.7,6.3c1,2.4,1.6,4.7,1.7,7l0,0.7l-3.7,9l-2.9-7.3
							c-0.8-2.1-1.9-3.5-3.1-4.1c-1.3-0.7-3.1-0.8-5.4-0.3c-5.4,1-9.9,4.4-13.3,10c-3.7,6.1-6.6,15.3-8.6,27.5l0,0.1
							c3-3.1,4.5-3.8,5.8-4c1.2-0.2,2.6-0.1,4.4,0.5c1.3,0.4,4.1,1.3,4.2,4l0,0.2l-0.1,0.5c-0.8,3.1-1.5,6.7-2.2,10.7
							c-0.8,4.3-1,6.5-1,7.6c1.2-0.3,2.4-1,3.7-2.2c1.7-1.5,3.2-3.2,4.5-5.2c1.3-1.9,2.2-3.7,2.7-5.3l0.8-2.8l2.9,0.6
							c0.8,0.2,1.6,0.5,2.1,1c0.9,0.8,1.3,1.9,1.4,3.2c0,0.7,0,1.5-0.2,2.3c-0.4,2.2-1.6,4.6-3.7,7.3c-1.9,2.6-4.2,4.9-6.9,6.9
							c-2.8,2.2-5.7,3.6-8.7,4.1c-3.2,0.6-5.8,0.1-7.8-1.6c-2-1.6-3-4.1-3.1-7.2c-0.1-1.8,0.1-3.9,0.6-6.2c-1.1,1.5-1.9,3.1-2.5,4.5
							c-0.1,0.6-0.3,2-0.6,4.3l-0.6,4c-0.2,1.7-0.5,2.6-1.1,3.4c-0.7,0.9-1.7,1.5-3,1.7C280.1,85.4,279,85.5,277.9,85.5z M312.7,3.9
							c-1.1,0-2.2,0.1-3.4,0.3c-4.4,0.8-8.7,3.2-12.7,6.9c-3.9,3.7-7.4,9.1-10.4,16.1c-3,6.9-5.3,15.6-6.9,25.7
							c-0.6,3.7-1,6.5-1.2,8.3c-0.2,1.2-0.5,3-0.9,5.3c-0.4,2.3-1.1,6.5-2.2,12.4l-0.4,2.7c0,0.5,0.1,1,0.5,1.4
							c0.7,0.7,1.7,0.8,2.5,0.9l0.4,0c1,0,2-0.1,3-0.3c0.9-0.2,1.6-0.6,2.1-1.1c0.4-0.5,0.6-1.3,0.8-2.6l0.6-4
							c0.3-2.4,0.5-3.9,0.6-4.4l0-0.2c0.7-1.7,1.7-3.5,3-5.2c0.6-0.9,1.3-1.7,1.9-2.5l2-2.5l-0.6,3.1c-0.3,1.3-0.5,2.4-0.6,3.3
							c-0.4,2.3-0.6,4.3-0.6,6c0.1,2.7,1,4.7,2.6,6.1c1.6,1.3,3.8,1.7,6.5,1.2c2.7-0.5,5.4-1.8,8-3.8c2.5-2,4.7-4.2,6.6-6.6
							c1.9-2.6,3-4.7,3.4-6.7c0.1-0.7,0.2-1.3,0.2-1.9c0-0.9-0.3-1.6-0.9-2.1c-0.4-0.3-0.9-0.6-1.4-0.7l-1.4-0.3l-0.4,1.4
							c-0.5,1.7-1.5,3.6-2.9,5.7c-1.4,2.1-3,4-4.8,5.5c-1.7,1.5-3.3,2.3-4.8,2.6c-0.3,0.1-0.6,0.1-0.7,0.1h-0.6l-0.2-0.6
							c-0.1-0.2-0.1-0.5-0.1-0.8c-0.1-1.5,0.3-4.3,1-8.2c0.7-4,1.5-7.6,2.2-10.7l0-0.2l0-0.1c0-1.5-1.6-2.1-3.1-2.5
							c-1.6-0.5-2.8-0.6-3.6-0.5c-1,0.2-2.6,0.9-6,4.7l-2.5,2.8l0.9-5.4c2-12.4,5-21.8,8.8-28.1c3.7-6,8.5-9.7,14.4-10.8
							c2.7-0.5,4.8-0.3,6.4,0.5c1.6,0.8,2.8,2.5,3.8,4.9l1.5,3.6l2-5l0-0.3c-0.1-2.1-0.6-4.3-1.5-6.5c-1-2.3-2.7-4.2-5-5.5
							C316.7,4.4,314.8,3.9,312.7,3.9z"/>
					</g>
				</g>
			</g>
			<g>
				<g>
					<g>
						<path d="M296,114.1c-2.3,0-4.2-0.4-5.8-1.2c-2.8-1.5-4.4-3.9-4.5-7c-0.1-2,0.5-3.8,1.7-5.6l1.6-2.4l2.1,2.1
							c1.1,1.1,2.6,1.9,4.7,2.4c2.1,0.5,4.7,0.5,7.5,0c3.4-0.6,6.4-2,9-4.2c2.6-2.2,5-5.6,7.2-10.1c1.6-3.4,3.1-7.6,4.5-12.6
							c-1.1,0.6-2.1,1-3,1.2c-1.2,0.2-2.6,0.1-4.1-0.3c-1.5-0.4-2.8-1.1-3.9-2c-1.4-1.1-2.1-2.6-2.2-4.2l0-0.1l0-0.1
							c0.2-1,0.4-3,0.9-6.2c0.6-5.3,1.3-10.1,2.1-14.1c0.4-2.2,2.1-3.7,4.6-4.2c0.6-0.1,1.3-0.2,2.2-0.3c1.4-0.2,1.9-0.1,2.2-0.1
							l2.5,0.3l-0.4,2.5c-0.6,3.2-1.4,8.2-2.3,14.8c-0.3,2.4-0.6,4.2-0.8,5.4c0,0.1,0,0.1,0.1,0.2c0.2,0,0.9-0.2,2.4-1.4
							c1-0.8,1.8-1.6,2.3-2.3l0.9-6.6c1-6.6,1.6-10.8,1.8-12.8l0.2-1.7l1.7-0.3c1.2-0.2,2.6-0.4,4.1-0.4c2.7-0.1,4.2,0.7,4.7,2.4
							l0.2,0.5l-0.1,0.6c-0.6,3.5-1.3,7.6-2.2,12.2c-0.9,4.6-1.7,8.5-2.4,11.5c-2.4,10.6-6.2,20.1-11.3,28.3
							c-5.3,8.6-13.1,13.9-23,15.7C299.2,113.9,297.5,114.1,296,114.1z"/>
						<path d="M296,114.9c-2.5,0-4.5-0.4-6.2-1.3c-3.1-1.6-4.8-4.3-4.9-7.6c-0.1-2.1,0.5-4.2,1.8-6.1l2.1-3.2l2.7,2.7
							c1,1,2.4,1.7,4.3,2.2c2,0.5,4.4,0.5,7.2,0c3.3-0.6,6.2-2,8.6-4c2.5-2.1,4.9-5.4,7-9.9c1.4-2.9,2.7-6.5,4-10.8
							c-0.5,0.2-1.1,0.4-1.6,0.5c-1.3,0.3-2.9,0.2-4.5-0.3c-1.6-0.4-3-1.2-4.2-2.2c-1.5-1.3-2.4-2.9-2.5-4.8l0-0.1l0-0.2
							c0.2-1.2,0.5-3.2,0.9-6.3c0.6-5.3,1.3-10.1,2.1-14.2c0.4-2.5,2.4-4.3,5.3-4.9c0.6-0.1,1.4-0.2,2.3-0.3c1.4-0.2,2-0.1,2.4-0.1
							l3.3,0.4l-0.6,3.3c-0.6,3.2-1.4,8.2-2.3,14.7c-0.2,1.6-0.4,3-0.6,4.1c0.3-0.2,0.6-0.4,0.9-0.7c0.9-0.7,1.6-1.4,2.1-2l0.9-6.4
							c1-6.6,1.6-10.8,1.8-12.8l0.3-2.3l2.3-0.4c1.2-0.2,2.7-0.4,4.3-0.4c3-0.1,4.9,0.9,5.5,2.9l0.2,0.7l-0.1,0.7
							c-0.6,3.5-1.3,7.6-2.2,12.2c-0.9,4.7-1.7,8.5-2.4,11.5c-2.4,10.7-6.2,20.3-11.4,28.6c-5.5,8.8-13.4,14.2-23.5,16.1
							C299.3,114.7,297.6,114.9,296,114.9z M289.1,99.2l-1.1,1.6c-1.1,1.6-1.6,3.3-1.5,5.1c0.1,2.8,1.5,4.9,4.1,6.3
							c2.4,1.3,5.8,1.5,10.4,0.6c9.7-1.8,17.3-7,22.5-15.4c5.1-8.1,8.8-17.6,11.2-28.1c0.7-3,1.5-6.8,2.3-11.5
							c0.9-4.6,1.6-8.7,2.2-12.2l0.1-0.4l-0.1-0.4c-0.1-0.5-0.6-1.9-3.9-1.8c-1.5,0-2.9,0.2-4,0.4l-1.1,0.2l-0.1,1.2
							c-0.2,2-0.8,6.2-1.8,12.8l-1,6.8l-0.1,0.2c-0.6,0.8-1.4,1.6-2.4,2.5c-1.2,1-2.3,1.6-2.9,1.6l-0.3,0l-0.2-0.2
							c-0.2-0.2-0.3-0.4-0.3-0.6l0-0.1l0-0.1c0.2-1.2,0.5-3,0.8-5.4c1-6.6,1.7-11.5,2.3-14.8l0.3-1.6l-1.7-0.2
							c-0.3,0-0.8-0.1-2.1,0.1c-0.9,0.1-1.6,0.2-2.2,0.3c-2.2,0.4-3.7,1.7-4,3.6c-0.8,4-1.4,8.8-2.1,14.1c-0.4,3.1-0.7,5.2-0.9,6.2
							c0,1.5,0.7,2.8,1.9,3.8c1,0.8,2.2,1.5,3.6,1.8c1.4,0.4,2.7,0.5,3.8,0.3c0.8-0.2,1.7-0.5,2.7-1.1l1.7-0.9l-0.5,1.8
							c-1.4,5-2.9,9.3-4.5,12.7c-2.2,4.7-4.7,8.1-7.4,10.4c-2.7,2.2-5.8,3.7-9.3,4.3c-3,0.6-5.6,0.6-7.9,0c-2.2-0.5-3.9-1.4-5-2.6
							L289.1,99.2z"/>
					</g>
				</g>
			</g>
		</g>
		<g>
			<g>
				<g>
					<path class="st2" d="M9,144.3c-0.3,0-0.7,0-1,0c-1.3-0.1-2.8-0.4-4.5-0.8l-0.5-0.1L3,142.8c-0.3-1.5-0.4-3-0.5-4.4l-0.1-2.8
						l0.5-0.3l1.8-0.8l0.3,0.7c0.9,1.9,1.9,3.3,3.1,4c1.2,0.7,3,0.8,5.4,0.3c2.3-0.4,4.3-1.3,5.9-2.5c1.6-1.2,2.9-2.9,4-5.2
						c1.1-2.3,2.1-5.4,2.9-9.2c0.8-3.9,2-10.6,3.5-19.9c1.5-9.3,2.2-14.7,2.2-16.2c0-0.1,0-0.1,0-0.2c-0.1,0-0.4,0-1,0.1
						c-2.5,0.5-4.9,1.3-7.1,2.5c-2.2,1.2-4,2.7-5.3,4.5c-1.3,1.7-1.9,3.6-1.8,5.6c0,1.3,0.4,2.4,1,3.3c0.6,0.9,1.4,1.5,2.4,1.8
						l2.2,0.7l-2.2,0.8c-0.8,0.3-1.5,0.5-2,0.6l-0.1,0l-0.1,0c-2.5-0.1-4.5-0.7-6.1-1.8c-1.6-1.2-2.4-2.9-2.5-5.2
						c-0.2-4.9,3.3-9.1,10.2-12.6c6.7-3.3,15.7-6,26.7-8.1c0.3-0.1,0.7,0,0.9,0.2c0.6,0.4,0.9,1.4,1.2,3.2l0.1,0.8l-6.2,1
						c-1,0.2-1.6,0.5-1.8,0.7c-0.3,0.2-0.6,0.7-0.8,1.3c-0.2,0.7-0.5,2-0.8,3.7c-0.4,2.3-1.2,7.8-2.4,16.4c-0.3,1.7-0.7,4.5-1.2,8.4
						c-0.6,3.9-1,6.7-1.3,8.2c-1.2,6-3.6,10.8-7.2,14.3c-3.6,3.5-8.2,5.8-13.6,6.9C11.6,144.1,10.2,144.3,9,144.3z"/>
					<path class="st2" d="M9,145.9c-0.4,0-0.8,0-1.1,0c-1.4-0.1-3-0.4-4.7-0.9l-1.5-0.4l-0.3-1.5c-0.3-1.6-0.5-3.1-0.5-4.6l-0.1-3.7
						l1.5-0.9l3.2-1.4l1,2.1c0.7,1.6,1.6,2.8,2.5,3.3c0.5,0.3,1.6,0.7,4.4,0.1c2.1-0.4,3.9-1.1,5.2-2.2c1.4-1,2.6-2.6,3.5-4.6
						c1.1-2.2,2-5.2,2.7-8.8c0.8-3.9,2-10.5,3.5-19.8c1.3-8.2,1.9-12.2,2.1-14.2c-2,0.5-3.9,1.2-5.7,2.2c-2,1.1-3.6,2.4-4.8,4
						c-1.1,1.4-1.6,2.9-1.5,4.6c0,1,0.3,1.8,0.7,2.5c0.4,0.6,0.9,1,1.6,1.2l6.6,2.2l-6.5,2.4c-0.9,0.3-1.6,0.5-2.3,0.7l-0.5,0
						c-2.9-0.1-5.2-0.9-7-2.1c-2-1.4-3.1-3.6-3.2-6.4c-0.2-5.6,3.5-10.3,11.1-14c6.8-3.4,16-6.1,27.1-8.2c0.8-0.1,1.5,0,2.2,0.5
						c1.2,0.9,1.6,2.6,1.8,4.3l0.3,2.3l-7.7,1.3c-0.9,0.2-1.1,0.4-1.2,0.4l0,0c0,0-0.1,0.1-0.3,0.5c-0.2,0.5-0.4,1.4-0.7,3.4
						c-0.4,2.3-1.2,7.8-2.4,16.4c-0.3,1.7-0.7,4.5-1.2,8.4c-0.6,3.9-1,6.7-1.3,8.3c-1.3,6.3-3.8,11.4-7.6,15.1
						c-3.8,3.7-8.7,6.2-14.5,7.3C11.8,145.7,10.3,145.9,9,145.9z M4.5,142c1.4,0.3,2.6,0.6,3.7,0.7c1.2,0.1,2.8,0,4.6-0.4
						c5.2-1,9.5-3.1,12.8-6.4c3.3-3.3,5.6-7.8,6.7-13.5c0.3-1.5,0.7-4.3,1.3-8.1c0.6-3.9,1-6.7,1.2-8.4c1.2-8.6,2-14.2,2.4-16.5
						c0.3-1.8,0.6-3.1,0.9-3.9c0.3-0.9,0.8-1.6,1.4-2.1c0.6-0.4,1.4-0.7,2.5-0.9l4.7-0.8c-0.1-0.8-0.3-1.1-0.4-1.3
						c-10.7,2-19.5,4.7-26,7.9c-6.3,3.1-9.5,6.9-9.3,11.1c0.1,1.8,0.7,3.1,1.9,3.9c1.2,0.9,2.9,1.4,4.9,1.5
						c-0.5-0.4-0.9-0.9-1.3-1.4c-0.8-1.2-1.2-2.6-1.3-4.2c-0.1-2.4,0.6-4.5,2.1-6.6c1.5-1.9,3.4-3.6,5.8-4.9
						c2.4-1.3,4.9-2.2,7.6-2.7c0.6-0.1,1.1-0.2,1.4-0.1l1.2,0.1l0.2,1.6c0,1-0.2,3.8-2.2,16.5c-1.5,9.4-2.7,16.1-3.5,20
						c-0.8,3.9-1.8,7.1-3,9.5c-1.2,2.5-2.7,4.4-4.5,5.8c-1.8,1.3-4,2.3-6.6,2.7c-2.9,0.5-5,0.4-6.5-0.5c-1.3-0.7-2.4-2-3.4-3.8
						l0.1,1.6C4.2,139.5,4.3,140.8,4.5,142z"/>
				</g>
			</g>
			<g>
				<g>
					<path class="st2" d="M53.9,125.5c-1.2,0-2.4-0.3-3.7-1c-1.8-0.9-2.8-2.1-3.1-3.4l0-0.1l0-0.1l3.2-21.6c0.2-1.2,0.7-1.9,1.5-2.1
						c0.6-0.1,1.6-0.1,3.1,0c1,0.1,2.8,0.2,2.9,1.4c0,0.1,0,0.3-0.5,2.8c-0.4,1.9-0.9,4.8-1.5,8.6c-0.6,3.7-1,6.5-1.2,8.2
						c0.1,0.3,0.3,0.6,0.7,0.8c0.4,0.3,0.8,0.3,1.4,0.2c1.1-0.2,2.2-1.1,3.5-2.7c1.3-1.6,2.3-4.1,3.1-7.3c0.7-2.7,1.6-7.3,2.6-13.5
						c0.1-0.8,0.6-1.4,1.3-1.5c0.7-0.1,1.6-0.1,3,0c0.7,0.1,2.6,0.3,2.6,1.6l0,0.1l0,0.1c-1.1,4.7-2.1,8.9-2.8,12.7
						c-0.7,3.7-1.1,6.1-1.1,7.2c0,0.6,0.2,1,0.6,1.3c0.3,0.3,0.9,0.4,1.6,0.2c1.7-0.3,3.6-1.7,5.8-4.1c2.3-2.5,4.4-5.9,6.4-10.1
						l0.2-0.5l0.5,0c1.1,0.1,1.8,0.7,1.9,1.7l0,0c0,1.2-0.7,3.1-2.4,6c-1.6,2.7-3.6,5.3-5.9,7.6c-2.4,2.4-4.9,3.9-7.4,4.4
						c-2,0.4-3.7,0.1-5.2-0.9c-1-0.6-1.6-1.5-2-2.5c-0.9,1.3-1.9,2.4-3,3.5c-1.6,1.6-3.2,2.5-4.7,2.8
						C54.6,125.5,54.2,125.5,53.9,125.5z"/>
					<path class="st2" d="M53.9,127.1c-1.4,0-2.9-0.4-4.4-1.2c-2.2-1.1-3.5-2.7-3.9-4.5l-0.1-0.3l0-0.4L48.7,99
						c0.4-2.6,1.9-3.2,2.7-3.4c0.8-0.1,1.8-0.2,3.5,0c1,0.1,4.2,0.3,4.3,3c0,0.3,0,0.5-0.6,3.2c-0.4,1.8-0.9,4.7-1.5,8.5
						c-0.5,3.3-0.9,5.8-1.2,7.5c0,0,0.1,0,0.1,0c0.3-0.1,1.2-0.4,2.5-2.1c1.1-1.5,2.1-3.7,2.8-6.7c0.7-2.7,1.5-7.2,2.6-13.4
						c0.2-1.5,1.2-2.5,2.6-2.8c0.8-0.2,1.9-0.2,3.4,0c3.3,0.3,4,1.9,4.1,3.1l0,0.2l0,0.3c-1.1,4.8-2.1,9-2.8,12.7
						c-0.9,4.7-1,6.3-1,6.8c0,0,0,0.1,0,0.1c0.1,0,0.2,0,0.3,0c0.9-0.2,2.5-0.9,4.9-3.6c2.2-2.4,4.2-5.7,6.1-9.7l0.7-1.4l1.6,0.1
						c1.9,0.1,3.3,1.4,3.3,3.3c0.1,1.6-0.7,3.6-2.6,6.8c-1.6,2.8-3.7,5.5-6.1,8c-2.6,2.7-5.4,4.3-8.2,4.8c-2.4,0.5-4.5,0.1-6.3-1.2
						c-0.5-0.3-0.9-0.7-1.3-1.1c-0.6,0.7-1.2,1.3-1.8,1.9c-1.8,1.8-3.7,2.8-5.5,3.2C54.8,127.1,54.3,127.1,53.9,127.1z M48.7,120.9
						c0.3,0.9,1,1.6,2.2,2.2c1.4,0.7,2.7,1,3.9,0.7c1.2-0.2,2.5-1,3.9-2.4c1-1,2-2.1,2.8-3.3l1.7-2.4l1,2.7c0.3,0.7,0.7,1.3,1.4,1.8
						c1.1,0.7,2.4,1,4,0.7c2.2-0.4,4.4-1.7,6.6-3.9c2.2-2.3,4.1-4.7,5.7-7.3c1.6-2.8,2.1-4.2,2.2-4.9c-1.9,3.9-4,7.2-6.2,9.6
						c-2.5,2.7-4.6,4.2-6.7,4.6c-1.2,0.2-2.2,0-2.9-0.6c-0.7-0.6-1.1-1.4-1.1-2.5c0-0.8,0.1-2.4,1.1-7.5c0.7-3.7,1.7-7.8,2.7-12.4
						c-0.2-0.1-0.5-0.2-1.2-0.2c-1.5-0.1-2.2-0.1-2.6,0h0c0,0,0,0-0.1,0.2c-1,6.3-1.9,10.9-2.6,13.7c-0.8,3.4-2,6-3.4,7.9
						c-1.5,1.9-2.9,3-4.4,3.3c-1,0.2-1.8,0-2.6-0.5c-0.7-0.5-1.1-1-1.3-1.7l-0.1-0.3l0-0.3c0.2-1.7,0.6-4.5,1.3-8.2
						c0.6-3.9,1.2-6.8,1.5-8.7c0.3-1.2,0.4-1.8,0.4-2.2c-0.4-0.1-1.1-0.2-1.3-0.2c-1.3-0.1-2.3-0.1-2.7,0c0,0-0.1,0.2-0.2,0.8
						L48.7,120.9z M70.1,116L70.1,116L70.1,116z"/>
				</g>
			</g>
			<g>
				<g>
					<path class="st2" d="M84,120.2c-0.8,0-1.6-0.1-2.3-0.2l0,0c-1.5-0.3-2.8-0.9-3.7-1.7c-1-0.9-1.5-1.9-1.6-3.1
						c0-1.1,0.3-2,1.1-2.8c0.7-0.7,1.5-1.2,2.4-1.5l0.7-0.2l0.3,0.7c0.5,1.5,1.3,2.5,2.3,3.2c0.9,0.7,2,0.9,3.4,0.6
						c1.4-0.3,2.5-0.9,3.4-1.9c0.9-1,1.3-2,1.2-3.1c0-0.9-0.3-1.5-0.9-2.1c-0.6-0.6-1.7-1.3-3.1-2.1c-1.6-0.9-2.8-1.8-3.7-2.6
						c-0.9-0.9-1.4-2.1-1.5-3.5c-0.1-1.5,0.4-3.1,1.4-4.6c1-1.5,2.2-2.7,3.8-3.8c1.5-1,3.1-1.7,4.7-2c1.8-0.3,3.5-0.2,5.1,0.3
						c2.3,0.7,2.9,2,2.9,2.9c0,0.6-0.2,1.3-0.6,2c-0.4,0.6-1,1.2-1.8,1.7l-0.6,0.4l-0.4-0.6c-0.6-0.8-1.2-1.4-1.8-1.7
						c-0.5-0.3-1.2-0.4-2-0.2c-0.9,0.2-1.7,0.6-2.4,1.2c-0.6,0.6-0.9,1.2-0.9,2c0,0.7,0.3,1.3,0.8,1.7c0.6,0.6,1.7,1.3,3,2.1
						c1.8,1,3.1,1.9,4,2.8c1,1,1.5,2.2,1.6,3.8c0.1,1.7-0.5,3.4-1.7,5.2c-1.1,1.7-2.7,3.2-4.5,4.5c-1.9,1.3-3.9,2.1-6.1,2.6
						C85.7,120.1,84.8,120.2,84,120.2z"/>
					<path class="st2" d="M84,121.8c-0.9,0-1.8-0.1-2.6-0.3c-1.8-0.4-3.3-1.1-4.4-2.1c-1.3-1.2-2-2.6-2.1-4.2
						c-0.1-1.5,0.5-2.9,1.5-4c0.9-0.9,1.9-1.5,3.1-1.9l2.1-0.6l0.8,2.1c0.4,1.2,1,2,1.7,2.5c0.4,0.3,1,0.6,2.1,0.3
						c1.1-0.2,1.9-0.6,2.5-1.4c0.8-0.9,0.9-1.6,0.8-2c0-0.6-0.2-0.8-0.4-1c-0.4-0.4-1.2-1-2.8-1.9c-1.7-1-3.1-1.9-4-2.8
						c-1.2-1.2-1.9-2.8-2-4.6c-0.1-1.9,0.5-3.7,1.7-5.5c1.1-1.6,2.5-3.1,4.2-4.2c1.7-1.2,3.5-1.9,5.3-2.3c2-0.4,4-0.3,5.9,0.3
						c3.4,1,4,3.2,4,4.4c0,1-0.2,1.9-0.8,2.9c-0.5,0.9-1.3,1.6-2.3,2.2l-1.9,1.2L95.2,97c-0.6-0.8-1-1.1-1.2-1.2
						c-0.1,0-0.3-0.2-0.9-0.1c-0.6,0.1-1.1,0.4-1.6,0.8c-0.3,0.3-0.4,0.5-0.4,0.8c0,0.2,0.1,0.4,0.3,0.6c0.4,0.4,1.2,1,2.7,1.9
						c1.9,1.1,3.3,2.1,4.3,3c1.3,1.3,2,2.9,2.1,4.9c0.1,2-0.6,4.1-1.9,6.1c-1.2,1.9-2.9,3.5-5,4.9c-2.1,1.4-4.3,2.3-6.7,2.8
						C85.9,121.7,84.9,121.8,84,121.8z M79.8,112.7c-0.4,0.2-0.8,0.5-1.1,0.8c-0.5,0.5-0.7,1-0.6,1.6c0,0.7,0.4,1.4,1,1.9
						c0.7,0.6,1.7,1.1,3,1.4c1.3,0.3,2.7,0.3,4.2,0c2-0.4,3.8-1.1,5.5-2.3c1.7-1.2,3.1-2.5,4.1-4.1c1-1.5,1.5-2.9,1.4-4.2
						c0-1.1-0.4-2-1.1-2.7c-0.8-0.8-2-1.6-3.7-2.6c-1.4-0.8-2.5-1.6-3.3-2.3c-0.9-0.8-1.3-1.7-1.3-2.9c0-1.3,0.4-2.4,1.4-3.2
						c0.9-0.8,1.9-1.4,3.2-1.6c1.2-0.2,2.2-0.1,3,0.4c0.6,0.3,1.2,0.9,1.8,1.6c0.3-0.3,0.5-0.5,0.7-0.8c0.2-0.4,0.4-0.8,0.4-1.1
						c0-0.8-1-1.2-1.8-1.4c-1.4-0.4-2.9-0.5-4.4-0.2c-1.3,0.3-2.7,0.8-4.1,1.8c-1.4,0.9-2.5,2-3.3,3.3c-0.8,1.2-1.2,2.5-1.2,3.7
						c0,1,0.4,1.8,1,2.5c0.7,0.7,1.9,1.5,3.3,2.3c1.6,0.9,2.7,1.7,3.4,2.4c0.8,0.8,1.3,1.9,1.3,3.2c0.1,1.5-0.5,2.9-1.6,4.2
						c-1.1,1.3-2.6,2.1-4.3,2.5c-1.8,0.3-3.3,0-4.6-0.9C81.2,115.2,80.4,114.1,79.8,112.7z"/>
				</g>
			</g>
			<g>
				<g>
					<path class="st2" d="M112.5,114.7c-1.5,0-2.8-0.4-3.8-1.3c-1.4-1.2-2.1-2.9-2.2-5.3c-0.1-2.3,0.5-7.6,1.9-16.3l-5.4,1.2
						c-0.6,0.1-0.9-0.4-1.1-0.6c-0.2-0.2-0.3-0.5-0.4-0.6l-0.1-0.3l0.1-0.3c0.7-1.6,1.2-2.7,1.7-3.4l0.2-0.3l5.8-1.1l2.5-15.2
						l0.3-0.2c2.8-2.1,5.5-3.7,7.9-4.6c0.5-0.1,1,0,1.4,0.3c0.5,0.3,0.7,0.7,0.7,1.1l0,0.4l-0.4,0.2c-1.6,1-2.5,2.4-2.8,4.1
						c-0.5,2.6-1.2,6.6-2.1,12.3l12.5-2.3L129,84c0,0,0,0.2,0,0.5c0,0.4,0.1,0.6,0.1,0.8c0,0.8-0.3,1.2-0.5,1.5
						c-0.3,0.3-0.8,0.5-1.4,0.7l-11.2,2.6c-1.3,8.5-1.9,13.8-1.9,16c0,0.9,0.3,1.6,0.8,2c0.4,0.4,1.2,0.5,2.3,0.3
						c1.9-0.3,4-1.5,6.3-3.3c2.4-1.9,4.8-4.3,7.1-7.1l0.6-0.7l0.6,0.7c0.4,0.4,0.6,1,0.7,1.5l0,0c0,0.4-0.1,0.9-0.2,1.6
						c-0.6,1.7-2,3.5-4.1,5.4c-2,1.9-4.3,3.7-6.9,5.1c-2.6,1.5-4.9,2.5-6.9,2.8C113.7,114.7,113.1,114.7,112.5,114.7z"/>
					<path class="st2" d="M112.5,116.3c-1.9,0-3.6-0.6-4.9-1.7c-1.7-1.5-2.7-3.6-2.8-6.4c-0.1-2.2,0.4-6.8,1.5-14.3l-3.1,0.7
						c-0.8,0.1-1.8,0-2.7-1.2c-0.3-0.4-0.5-0.7-0.6-1l-0.4-0.9l0.4-0.9c0.7-1.6,1.3-2.8,1.8-3.6l0.5-0.9l5.4-1l2.4-14.7l0.8-0.6
						c2.9-2.2,5.7-3.8,8.3-4.8l0.2-0.1c1-0.2,1.9,0,2.7,0.6c1.1,0.8,1.3,1.7,1.3,2.4l0,1.3l-1.1,0.7c-1.2,0.8-1.9,1.8-2.1,3
						c-0.4,2.2-1,5.5-1.7,10.1l12.7-2.3l-0.7,3.4c0,0,0,0,0,0.1c0,0.4,0.1,0.7,0.1,0.9c0,1.1-0.3,2-1,2.7c-0.5,0.5-1.3,0.9-2.2,1.1
						l-10.1,2.3c-1.5,9.6-1.7,13.3-1.7,14.7c0,0.4,0.1,0.8,0.2,0.9c0,0,0.1,0,0.2,0c0.2,0,0.4,0,0.7-0.1c1.6-0.3,3.5-1.3,5.6-3
						c2.3-1.8,4.6-4.1,6.9-6.9l1.7-2.1l1.9,2c0.7,0.7,1.1,1.6,1.1,2.6c0,0.5-0.1,1.2-0.3,2.1l-0.1,0.2c-0.7,1.9-2.1,3.9-4.4,6
						c-2.1,2-4.5,3.8-7.2,5.4c-2.7,1.6-5.2,2.6-7.4,3C113.9,116.3,113.1,116.3,112.5,116.3z M110.2,89.8l-0.4,2.3
						c-1.3,8.5-1.9,13.8-1.9,16c0.1,1.9,0.6,3.2,1.7,4.1c1,0.9,2.5,1.1,4.4,0.8c1.8-0.3,3.9-1.2,6.4-2.6c2.4-1.4,4.7-3.1,6.6-4.9
						c1.9-1.8,3.1-3.3,3.6-4.8c0-0.1,0.1-0.3,0.1-0.4c-2.1,2.4-4.2,4.5-6.3,6.1c-2.5,2-4.9,3.2-7,3.6c-1.6,0.3-2.8,0.1-3.6-0.7
						c-0.8-0.7-1.2-1.8-1.3-3.2c-0.1-2.3,0.5-7.6,1.9-16.3l0.2-1.1l12.2-2.8c0.5-0.1,0.6-0.2,0.6-0.2c0,0,0.1-0.1,0.1-0.3
						c0-0.1,0-0.3,0-0.6l-12.7,2.3l0.4-2.2c0.9-5.8,1.6-9.8,2.1-12.4c0.3-1.6,1-2.9,2.1-4.1c-1.9,0.9-4.1,2.1-6.3,3.8l-2.6,15.6
						l-6.2,1.2c-0.3,0.6-0.7,1.4-1.2,2.4L110.2,89.8z"/>
				</g>
			</g>
			<g>
				<g>
					<path class="st2" d="M147.6,108c-0.5,0-0.8-0.1-1.1-0.3c-0.5-0.3-0.8-0.9-0.9-1.8c0-1.1,0.2-3.4,0.9-7.2
						c0.6-3.7,1.5-8.9,2.8-15.6c0.8-4.3,1.5-8.2,2.1-12c0.6-3.6,0.8-5.3,0.9-6c-0.1,0-0.1,0-0.2,0c-0.3,0.1-1,0.3-3.1,1
						c-2.4,0.9-4.2,1.4-5.4,1.6c-1.2,0.2-2,0.2-2.6,0c-0.4-0.2-1.1-0.6-1.1-1.9c0-0.6,0.1-1.4,0.3-2.4c0.2-1,0.5-1.7,0.8-2.2
						l0.3-0.5l0.6,0.1c1.5,0.3,3.5,0.2,5.8-0.2c2-0.4,5-1.1,8.9-2.2c0.5-0.1,1.9-0.5,4.2-1.1c2.3-0.6,4.3-1.1,6.1-1.4
						c5.4-1,9.5-0.8,12.3,0.6c2.9,1.4,4.5,4.3,4.6,8.5c0.1,3.4-0.6,6.6-2.3,9.5c-1.6,2.9-3.9,5.4-6.8,7.3c-2.9,1.9-6.1,3.3-9.5,3.9
						c-2.6,0.5-4.4,0.5-5.5,0c-1.6-0.7-2-1.8-2-2.6c0-0.5,0.1-1,0.3-1.5c0.2-0.5,0.5-0.9,0.8-1.2l0.4-0.4l0.5,0.3
						c0.2,0.1,0.6,0.3,1.7,0.3c0.9,0.1,2,0,3.1-0.3c2.4-0.5,4.4-1.3,6.1-2.6c1.7-1.3,2.9-2.9,3.8-4.7c0.8-1.8,1.2-3.8,1.1-5.8
						c-0.1-2.4-0.8-4.1-2-5.1c-1.5-1.2-3.9-1.5-7.2-0.9c-1.7,0.3-3.2,0.8-4.6,1.4c-0.8,0.4-1.8,1-2,1.8c-0.8,3.7-1.9,10.8-3.5,21.1
						c-2,12.8-2.4,16.6-2.3,17.6c0,0.4,0,0.7,0.1,1.1c0.1,0.4,0.1,0.8,0.1,1.2l0,0.5l-0.5,0.2c-1.8,0.8-3.4,1.3-4.8,1.6
						C148.3,108,147.9,108,147.6,108z"/>
					<path class="st2" d="M147.6,109.6c-0.8,0-1.4-0.2-2-0.5c-0.7-0.4-1.5-1.3-1.6-3c0-0.7,0-2.3,0.9-7.5c0.6-3.7,1.5-9,2.8-15.6
						c0.8-4.2,1.5-8.2,2.1-11.9c0.3-1.5,0.4-2.7,0.6-3.6c-0.3,0.1-0.5,0.2-0.9,0.3c-2.5,0.9-4.3,1.4-5.6,1.7
						c-1.5,0.3-2.6,0.3-3.5-0.1c-1.3-0.5-2.1-1.7-2.1-3.3c0-0.8,0.1-1.7,0.4-2.8c0.3-1.1,0.6-2,1-2.6l0.8-1.5l1.6,0.3
						c1.3,0.2,3.1,0.2,5.2-0.2c2-0.4,4.9-1.1,8.7-2.2c0.6-0.2,1.9-0.5,4.2-1.1c2.3-0.6,4.4-1.1,6.2-1.4c5.8-1.1,10.2-0.9,13.3,0.7
						c2.4,1.2,5.3,3.9,5.5,9.9c0.1,3.7-0.7,7.2-2.5,10.3c-1.7,3.1-4.2,5.8-7.3,7.8c-3,2.1-6.4,3.5-10.1,4.1c-2.9,0.6-5,0.5-6.4-0.1
						c-0.5-0.2-0.9-0.5-1.3-0.7c-2.1,13.3-2.2,16.1-2.2,16.7c0,0.3,0,0.6,0.1,0.9c0.1,0.5,0.1,1,0.1,1.4l0.1,1.6l-1.5,0.6
						c-1.9,0.8-3.6,1.4-5.1,1.7C148.5,109.5,148,109.6,147.6,109.6z M147.3,106.4c0,0,0.5,0.1,1.2-0.1c1.1-0.2,2.5-0.6,3.9-1.2
						c0-0.2,0-0.3-0.1-0.5c-0.1-0.4-0.1-0.8-0.1-1.3c0-0.6-0.1-2.3,2.3-17.9c1.6-10.3,2.8-17.4,3.6-21.2c0.2-1.2,1.2-2.1,2.9-2.9
						c1.5-0.7,3.2-1.2,5-1.5c3.8-0.7,6.6-0.3,8.5,1.2c1.6,1.3,2.5,3.4,2.6,6.3c0.1,2.3-0.3,4.5-1.3,6.5c-0.9,2-2.4,3.8-4.2,5.3
						c-1.9,1.4-4.2,2.4-6.8,2.9c-1.3,0.2-2.5,0.3-3.5,0.3c-0.7,0-1.3-0.1-1.8-0.3c-0.1,0.1-0.1,0.2-0.2,0.4
						c-0.1,0.3-0.2,0.6-0.2,0.8c0,0.2,0,0.7,1,1.2c0.6,0.2,1.8,0.4,4.6-0.1c3.2-0.6,6.2-1.8,8.9-3.7c2.7-1.8,4.8-4.1,6.3-6.8
						c1.5-2.7,2.2-5.6,2.1-8.7c-0.1-3.6-1.4-6-3.8-7.1c-2.5-1.2-6.2-1.4-11.3-0.4c-1.7,0.3-3.8,0.8-6,1.4c-2.3,0.6-3.6,1-4.2,1.1
						c-3.9,1.1-6.9,1.9-9,2.3c-2.2,0.4-4.2,0.5-5.8,0.3c-0.1,0.3-0.3,0.8-0.4,1.3c-0.2,0.8-0.3,1.5-0.3,1.9c0,0.1,0,0.4,0.1,0.4
						c0.1,0,0.5,0.1,1.7-0.1c1.1-0.2,2.8-0.7,5.2-1.5c2.3-0.8,3-1,3.3-1c0.1,0,0.2,0,0.3,0l1.9-0.2l-0.1,1.9c-0.1,1-0.4,3.1-0.9,6.2
						c-0.6,3.7-1.3,7.7-2.1,12c-1.2,6.6-2.1,11.9-2.7,15.6c-0.7,4.5-0.9,6.2-0.8,6.8C147.2,106.2,147.3,106.4,147.3,106.4z
						 M160.4,78.9c0,0,0.3,0.1,1.1,0.1c0.8,0,1.7,0,2.8-0.2c2.1-0.4,4-1.2,5.4-2.3c1.5-1.1,2.6-2.5,3.3-4.1c0.7-1.6,1.1-3.3,1-5.1
						c-0.1-1.9-0.5-3.2-1.4-3.9c-1.1-0.9-3.2-1.1-6-0.5c-1.6,0.3-3,0.7-4.2,1.3c-0.8,0.4-1.1,0.7-1.1,0.7c-0.5,2.6-1.3,7-2.3,13.2
						L160.4,78.9C160.4,78.9,160.4,78.9,160.4,78.9z"/>
				</g>
			</g>
			<g>
				<g>
					<path class="st2" d="M196.3,98.5c-1.3,0-2.5-0.2-3.6-0.6c-1.8-0.7-3.3-1.6-4.3-2.7c-1.1-1.2-1.6-2.1-1.6-2.9l0-0.1l0-0.1
						c0.3-1.1,0.5-2.5,0.7-4.1c0.2-1.6,0.4-2.7,0.5-3.4c0.1-0.8,0.2-1.7,0.4-2.8c0.2-1.1,0.4-2.4,0.6-3.8c0.2-1.1,1-2.3,2.4-3.7
						c1.4-1.3,3-2.6,4.7-3.6c1.8-1.1,3.3-1.7,4.6-2c1.1-0.2,2.3-0.2,3.8,0.1c1.5,0.3,2.8,0.8,3.9,1.6c1.2,0.9,1.8,2.1,1.9,3.6
						c0.1,1.8-0.8,3.7-2.4,5.6c-1.6,1.9-3.7,3.6-6.2,5c-2.3,1.4-4.7,2.3-6.9,2.9l-0.3,2.2c0.2,1,0.7,1.8,1.7,2.4
						c1,0.6,2.6,0.8,4.7,0.4c2.1-0.4,4.3-1.3,6.6-2.7c2.3-1.4,4.5-3.2,6.4-5.2c1.9-2.1,3.4-4.2,4.5-6.5l0.3-0.6l0.6,0.2
						c1.5,0.4,1.8,1.4,1.8,2c0.1,2.2-1.1,4.5-3.5,7.3c-2.3,2.6-5.2,5-8.6,7.1c-3.4,2.1-6.7,3.5-9.7,4.1
						C198.3,98.4,197.3,98.5,196.3,98.5z M201.2,73.1c-0.2,0-0.3,0-0.5,0c-0.9,0.2-1.8,0.8-2.7,1.9v0c-0.9,1.1-1.5,2.2-1.7,3.1
						l-0.7,4.8c2-0.7,3.7-1.7,5.2-3c1.6-1.5,2.4-3.1,2.4-4.6c0-0.8-0.3-1.4-0.8-1.8C202.1,73.2,201.7,73.1,201.2,73.1z"/>
					<path class="st2" d="M196.3,100.1c-1.5,0-2.9-0.2-4.2-0.7c-2.1-0.8-3.7-1.8-4.9-3.1c-1.3-1.5-1.9-2.7-2-3.9l0-0.2l0-0.3
						c0.3-1.2,0.5-2.5,0.7-4.1c0.2-1.6,0.4-2.8,0.5-3.4c0.1-0.7,0.2-1.7,0.4-2.8c0.2-1.1,0.4-2.4,0.6-3.9c0.2-1.4,1.2-2.9,2.9-4.6
						c1.5-1.4,3.1-2.7,5-3.9c2-1.2,3.7-1.9,5.1-2.2c1.3-0.2,2.7-0.2,4.4,0.1c1.7,0.3,3.2,1,4.5,1.9c1.6,1.2,2.5,2.8,2.5,4.8
						c0.1,2.2-0.9,4.5-2.8,6.7c-1.7,2-4,3.8-6.6,5.4c-2.1,1.2-4.2,2.2-6.3,2.8l-0.1,0.9c0.1,0.5,0.4,0.8,0.9,1.1
						c0.4,0.2,1.3,0.6,3.5,0.2c1.9-0.4,4-1.2,6.1-2.5c2.2-1.3,4.2-3,6.1-4.9c1.8-1.9,3.2-4,4.2-6.1l0.8-1.8l1.9,0.5
						c1.8,0.5,2.9,1.8,3,3.5c0.1,2.6-1.2,5.3-3.9,8.4c-2.4,2.7-5.4,5.2-9,7.4c-3.6,2.2-7.1,3.7-10.3,4.3
						C198.5,100,197.4,100.1,196.3,100.1z M188.5,92.4c0.1,0.3,0.3,0.8,1.2,1.8c0.8,0.9,2,1.7,3.6,2.3c1.6,0.6,3.5,0.7,5.7,0.2
						c2.8-0.5,5.9-1.8,9.2-3.8c3.3-2,6.1-4.3,8.3-6.8c2.1-2.4,3.1-4.4,3.1-6.2c0-0.1,0-0.1,0-0.2c-1.1,2.2-2.5,4.2-4.4,6.2
						c-2,2.2-4.3,4-6.7,5.5c-2.4,1.5-4.8,2.5-7.1,2.9c-2.5,0.5-4.4,0.3-5.8-0.6c-1.3-0.8-2.1-2-2.4-3.5l0-0.3l0.5-3.5l1-0.3
						c2.1-0.5,4.3-1.5,6.5-2.7c2.4-1.4,4.3-3,5.8-4.7c1.4-1.6,2.1-3.2,2.1-4.5c0-1-0.4-1.8-1.3-2.4c-0.9-0.7-2-1.1-3.2-1.4
						c-1.3-0.2-2.3-0.3-3.2-0.1c-1.1,0.2-2.4,0.8-4,1.8c-1.7,1-3.2,2.2-4.4,3.4c-1.6,1.6-1.9,2.5-2,2.9c-0.3,1.5-0.5,2.7-0.6,3.8
						c-0.2,1.1-0.3,2-0.4,2.8c-0.1,0.7-0.3,1.8-0.5,3.4C189,89.8,188.8,91.2,188.5,92.4z M193.7,85.2l1.1-7.4c0.3-1.3,0.9-2.6,2-3.9
						c1.1-1.4,2.3-2.2,3.6-2.4c1.2-0.2,2.1,0,3,0.7c0.9,0.7,1.3,1.7,1.4,3c0.1,2-0.9,4-2.9,5.8c-1.6,1.5-3.5,2.6-5.8,3.3L193.7,85.2
						z M201.2,74.7c-0.1,0-0.1,0-0.2,0c-0.5,0.1-1.1,0.6-1.8,1.3c-0.7,0.9-1.2,1.8-1.4,2.4l-0.3,1.9c0.8-0.4,1.5-1,2.1-1.5
						c1.3-1.2,1.9-2.3,1.9-3.4c0-0.3-0.1-0.5-0.1-0.6C201.3,74.7,201.3,74.7,201.2,74.7z"/>
				</g>
			</g>
			<g>
				<g>
					<path class="st2" d="M222.4,93.9c-0.9,0-1.8-0.2-2.6-0.5c-1.3-0.5-2.4-1.2-3.3-2.2c-1-1-1.5-2.1-1.6-3.3l0-0.1l0-0.1
						c0.9-4.5,1.6-9,2.3-13.2c0.2-1,0.9-2.4,2.3-4.1c1.3-1.6,2.9-3.1,4.8-4.4c1.9-1.4,3.8-2.2,5.6-2.5c1.4-0.3,2.9-0.2,4.4,0.3
						c0.2-0.6,0.4-0.9,0.5-1c0.3-0.4,0.7-0.6,1.2-0.8l6.1-1.5l1.5,0.7l-0.8,0.8c-0.4,0.5-0.8,0.9-1,1.4c-0.2,0.5-0.4,1.1-0.6,1.8
						c-0.7,2.7-1.4,6.1-2.1,9.9c-0.7,3.8-1,6.4-1,7.8c0,1.1,0.3,1.9,0.9,2.7c0.3,0.4,0.8,0.9,2.1,0.6c1.2-0.2,2.6-1,4.2-2.4
						c1.6-1.4,3.2-3.2,4.6-5.4c1.4-2.2,2.4-4.6,3-7.2l0.1-0.5l0.5-0.1c0.7-0.1,1.1,0.1,1.4,0.3c0.5,0.4,0.8,1.1,0.8,2.1l0,0
						c0.1,2.2-0.7,4.7-2.4,7.4c-1.7,2.6-3.8,5-6.3,7c-2.6,2.1-5,3.3-7.2,3.7c-1.9,0.4-3.5,0.1-5-0.7c-1.1-0.6-1.9-1.4-2.6-2.4
						c-1,1.3-2.2,2.5-3.6,3.5c-1.8,1.3-3.3,2-4.8,2.3C223.2,93.9,222.8,93.9,222.4,93.9z M222.8,85.2c0.1,0.8,0.5,1.5,1.1,2.1
						c0.8,0.8,1.4,0.7,1.5,0.7c0.3-0.1,0.9-0.3,1.8-1.1l0,0c0.8-0.7,1.6-1.6,2.3-2.7c0.7-1.1,1.2-2.3,1.4-3.5l0.9-5
						c0.6-3.5,1-5.9,1.2-7.3c-0.8-0.1-1.7-0.1-2.6,0.1c-1.9,0.4-3.2,1.2-4.1,2.4c-0.9,1.4-1.5,2.8-1.8,4.4L222.8,85.2z"/>
					<path class="st2" d="M222.4,95.5C222.4,95.5,222.4,95.5,222.4,95.5c-1.1,0-2.2-0.2-3.2-0.6c-1.5-0.6-2.8-1.4-3.9-2.6
						c-1.2-1.3-1.9-2.7-2-4.3l0-0.2l0-0.3c0.9-4.6,1.6-9.1,2.3-13.3c0.2-1.4,1.1-2.9,2.7-4.8c1.4-1.7,3.1-3.3,5.1-4.7
						c2.1-1.5,4.2-2.4,6.2-2.8c1.3-0.2,2.6-0.2,3.9,0c0,0,0.1-0.1,0.1-0.1c0.5-0.6,1.1-1.1,2-1.3l6.7-1.6l4.1,1.8l-2.4,2.4
						c-0.3,0.3-0.5,0.6-0.7,0.9c-0.2,0.5-0.4,1-0.5,1.6c-0.7,2.7-1.4,6-2.1,9.8c-0.8,4.6-1,6.6-0.9,7.4c0,0.7,0.2,1.3,0.6,1.8
						c0,0,0.1,0.1,0.5,0c0.6-0.1,1.7-0.6,3.4-2c1.5-1.3,3-3,4.3-5.1c1.3-2.1,2.2-4.3,2.8-6.7l0.4-1.5l1.5-0.3c1-0.2,1.9,0,2.7,0.6
						c0.9,0.7,1.3,1.8,1.4,3.3c0.1,2.5-0.8,5.3-2.7,8.3c-1.8,2.8-4,5.3-6.7,7.4c-2.8,2.2-5.4,3.6-7.9,4c-2.2,0.4-4.3,0.1-6-0.8
						c-0.7-0.4-1.3-0.8-1.8-1.3c-0.8,0.8-1.7,1.6-2.7,2.3c-2,1.4-3.7,2.3-5.4,2.6C223.4,95.5,222.9,95.5,222.4,95.5z M216.5,87.9
						c0.1,0.9,0.5,1.6,1.1,2.3c0.8,0.8,1.7,1.4,2.7,1.8c0.7,0.3,1.4,0.4,2.1,0.4c0,0,0,0,0,0h0c0.3,0,0.7,0,1-0.1
						c1.2-0.2,2.6-0.9,4.1-2c1.2-0.9,2.3-2,3.3-3.2l1.4-1.8l1.2,1.9c0.5,0.8,1.2,1.4,2,1.8c1.1,0.6,2.5,0.8,3.9,0.5
						c2-0.4,4.2-1.5,6.5-3.4c2.4-1.9,4.4-4.1,6-6.6c1.5-2.4,2.3-4.6,2.2-6.5c0-0.1,0-0.2,0-0.3c-0.7,2.3-1.6,4.4-2.9,6.4
						c-1.5,2.4-3.1,4.3-4.9,5.8c-1.8,1.6-3.4,2.4-4.9,2.7c-1.6,0.3-2.9-0.1-3.7-1.3c-0.7-1-1.1-2.2-1.2-3.6c-0.1-1.5,0.3-4.1,1-8.1
						c0.7-3.8,1.4-7.2,2.1-10c0.2-0.8,0.4-1.5,0.7-2.1c0-0.1,0.1-0.1,0.1-0.2l-4.1,1c-0.1,0-0.2,0.1-0.3,0.2c0,0-0.1,0.2-0.3,0.7
						l-0.5,1.3l-1.4-0.4c-1.3-0.4-2.5-0.4-3.7-0.2c-1.6,0.3-3.2,1.1-4.9,2.3c-1.8,1.2-3.3,2.6-4.5,4.1c-1.5,1.8-1.9,2.8-2,3.3
						C218.1,78.9,217.3,83.4,216.5,87.9z M225.1,89.6c-0.9,0-1.7-0.4-2.4-1.2c-0.8-0.8-1.3-1.8-1.5-3l0-0.2l1.7-10.2
						c0.3-1.8,1-3.4,2.1-5c1.1-1.6,2.8-2.7,5.1-3.1c1.1-0.2,2.1-0.2,3.1-0.1l1.6,0.2l-0.3,1.6c-0.3,1.5-0.7,3.9-1.2,7.3l-0.9,5
						c-0.3,1.4-0.8,2.8-1.6,4c-0.8,1.2-1.6,2.3-2.5,3.1c-1,0.9-1.8,1.4-2.6,1.5C225.5,89.6,225.3,89.6,225.1,89.6z M224.4,85.2
						c0.1,0.4,0.3,0.7,0.6,1c0.1,0.1,0.2,0.2,0.2,0.2c0.2-0.1,0.5-0.3,1-0.7c0.7-0.6,1.4-1.4,2-2.4c0.6-0.9,1-1.9,1.2-2.9l0.9-5
						c0.4-2.3,0.7-4.1,0.9-5.5c-0.1,0-0.3,0-0.4,0.1c-1.5,0.3-2.4,0.8-3.1,1.8c-0.8,1.2-1.3,2.4-1.6,3.8L224.4,85.2z"/>
				</g>
			</g>
			<g>
				<g>
					<path class="st2" d="M259.8,86.6c-1.3,0-2.5-0.2-3.6-0.6c-1.8-0.6-3.3-1.5-4.5-2.6c-1.2-1.2-1.8-2.2-1.9-3.2l0-0.1l0-0.1
						c0.8-3.4,1.3-6,1.7-8c0.4-1.9,0.7-4.1,1.1-6.4c0.1-1,0.8-2.2,2.2-3.5c1.2-1.3,2.7-2.4,4.5-3.5c1.8-1.1,3.4-1.8,4.9-2
						c1.9-0.3,3.7-0.2,5.5,0.3c2.5,0.8,3.1,2.5,3.1,3.8c0.1,2.2-1.3,4-4.1,5.6l-0.2,0.1l-1.2-0.1l-0.1-0.7c-0.1-1.4-0.6-2.6-1.3-3.5
						c-1-1.3-1.8-1.1-2-1.1c-0.8,0.1-1.7,0.8-2.6,1.9c-0.9,1.1-1.5,2.1-1.6,2.9c-0.6,3.7-1.3,8-2.1,12.6c0.2,1.1,0.7,1.9,1.5,2.4
						c0.5,0.4,1.7,0.7,4.3,0.2c2.7-0.5,5.6-1.9,8.6-4c2.9-2.1,5.2-5.6,6.8-10.3l0.1-0.4l0.5-0.1c0.8-0.1,1.3,0.1,1.5,0.3
						c0.5,0.4,0.8,1,0.8,2c0.1,2.3-1,4.7-3.2,7.4c-2.2,2.5-4.8,4.8-7.9,6.8c-3.1,2-5.9,3.3-8.4,3.7
						C261.3,86.5,260.5,86.6,259.8,86.6z"/>
					<path class="st2" d="M259.8,88.2c-1.4,0-2.8-0.2-4.1-0.7c-2.1-0.7-3.8-1.7-5.1-3c-1.5-1.5-2.3-2.9-2.4-4.3l0-0.2l0-0.3
						c0.8-3.4,1.3-6.1,1.7-8c0.3-1.9,0.7-4.1,1.1-6.4c0.2-1.3,1-2.8,2.6-4.4c1.3-1.4,2.9-2.6,4.8-3.7c1.9-1.2,3.8-1.9,5.4-2.3
						c2.1-0.4,4.2-0.3,6.2,0.4c2.6,0.8,4.2,2.8,4.2,5.3c0.1,1.9-0.7,4.7-4.9,7l-0.6,0.3l-3-0.1l-0.2-2.1c-0.1-1.1-0.4-2-1-2.7
						c-0.3-0.4-0.5-0.5-0.6-0.5c-0.1,0-0.7,0.2-1.6,1.3c-1,1.2-1.2,1.9-1.2,2.1c-0.6,3.7-1.2,7.8-2,12.4c0.2,0.7,0.5,1,0.7,1.1
						c0,0,0.7,0.4,3.1-0.1c2.5-0.5,5.2-1.7,8-3.7c2.6-1.9,4.7-5.1,6.3-9.5l0.4-1.3l1.4-0.3c1.1-0.2,2.1,0,2.8,0.6
						c0.9,0.7,1.3,1.8,1.4,3.2c0.1,2.7-1.1,5.5-3.6,8.5c-2.3,2.7-5,5.1-8.3,7.1c-3.3,2.1-6.3,3.4-8.9,3.9
						C261.5,88.1,260.6,88.2,259.8,88.2z M251.4,80.2c0.1,0.4,0.3,1,1.4,2c1,0.9,2.3,1.7,3.9,2.3c1.6,0.5,3.3,0.7,5.1,0.3
						c2.2-0.4,4.9-1.6,7.8-3.5c3-1.9,5.5-4.1,7.6-6.5c2-2.3,2.9-4.4,2.9-6.3c0-0.3-0.1-0.5-0.1-0.6c-1.7,4.7-4.1,8.2-7.2,10.4
						c-3.1,2.3-6.2,3.7-9.2,4.2c-2.5,0.5-4.3,0.3-5.5-0.4c-1.1-0.7-1.8-1.9-2.1-3.4l-0.1-0.3l0.1-0.3c0.8-4.6,1.5-8.9,2.1-12.6
						c0.2-1.1,0.8-2.3,2-3.7c1.2-1.4,2.3-2.2,3.5-2.4c1.3-0.3,2.5,0.3,3.6,1.7c0.7,1,1.3,2.1,1.5,3.3c1.7-1.1,2.6-2.3,2.5-3.7
						c0-1.2-0.7-2-2-2.4c-1.5-0.5-3.1-0.6-4.7-0.3c-1.3,0.2-2.8,0.9-4.4,1.8c-1.6,1-3,2.1-4.2,3.3c-1.4,1.4-1.7,2.2-1.7,2.6
						c-0.4,2.4-0.7,4.6-1.1,6.5C252.7,74.2,252.1,76.9,251.4,80.2z"/>
				</g>
			</g>
			<g>
				<g>
					<path class="st2" d="M277.9,83.1c-0.1,0-0.3,0-0.4,0c-1,0-1.5-0.2-1.9-0.6c-0.2-0.2-0.3-0.6-0.3-0.9l0.4-2.6
						c1.1-5.9,1.8-10.1,2.2-12.4c0.4-2.3,0.7-4.1,0.9-5.3c0.2-1.8,0.7-4.6,1.2-8.3c1.6-10.1,3.9-18.7,6.8-25.5
						c3-6.9,6.4-12.2,10.3-15.8c3.8-3.6,8-5.9,12.3-6.7c3.5-0.7,6.3-0.3,8.5,1h0c2.2,1.3,3.8,3,4.7,5.2c0.9,2.1,1.4,4.2,1.5,6.2
						l0,0.2l-1.2,3l-0.7-1.8c-1.1-2.6-2.5-4.4-4.2-5.3c-1.7-0.9-4.1-1.1-6.9-0.6C305,14,300,17.7,296.1,23.9
						c-3.9,6.4-6.9,15.9-8.9,28.3c-0.2,1.3-0.7,4.2-1.5,8.7c1.4-1.8,2.8-3.6,4.4-5.4c3.4-3.7,4.8-4.3,5.6-4.5c0.8-0.1,1.8,0,3.3,0.5
						c1.5,0.5,2.5,0.9,2.5,1.8l0,0.1l0,0.1c-0.7,3-1.5,6.6-2.2,10.6c-0.7,4-1.1,6.8-1,8.4c0,0.9,0.2,1.5,0.6,1.8
						c0.4,0.3,1,0.4,1.9,0.2c1.7-0.3,3.4-1.3,5.2-2.8c1.8-1.6,3.5-3.5,4.9-5.7c1.4-2.1,2.4-4.1,3-5.9l0.2-0.7l0.7,0.2
						c0.4,0.1,0.8,0.3,1.1,0.5c0.4,0.3,0.5,0.8,0.6,1.5c0,0.5,0,1.1-0.2,1.7c-0.4,1.8-1.4,3.9-3.3,6.4c-1.8,2.4-3.9,4.6-6.4,6.5
						c-2.5,2-5.1,3.2-7.6,3.7c-2.4,0.5-4.4,0.1-5.8-1.1c-1.4-1.2-2.2-3-2.3-5.5c-0.1-1.6,0.1-3.5,0.5-5.8c0.4-2,1-4.9,1.8-8.6
						c-0.3,0.2-0.9,0.7-1.9,1.7c-1.3,1.3-2.6,2.9-4,4.8c-1.4,1.9-2.4,3.8-3.1,5.6c-0.1,0.6-0.3,2.2-0.6,4.7l-0.6,4
						c-0.2,1.5-0.4,2-0.7,2.3c-0.3,0.4-0.8,0.7-1.6,0.8C279.8,83,278.8,83.1,277.9,83.1z"/>
					<path class="st2" d="M277.9,84.7c-0.2,0-0.3,0-0.5,0c-0.9,0-2.2-0.2-3-1.1c-0.5-0.6-0.8-1.3-0.7-2.1l0.4-2.7
						c1.1-6,1.8-10.1,2.2-12.4c0.4-2.3,0.7-4.1,0.9-5.3c0.2-1.8,0.7-4.6,1.2-8.3c1.6-10.2,3.9-18.9,6.9-25.9
						c3.1-7.1,6.7-12.6,10.6-16.3c4.1-3.8,8.5-6.2,13.1-7.1c3.8-0.7,7.1-0.3,9.6,1.1c2.5,1.4,4.3,3.4,5.4,5.9c1,2.3,1.5,4.5,1.6,6.8
						l0,0.5l-2.8,7l-2.2-5.5c-0.9-2.3-2.1-3.8-3.4-4.5c-1.4-0.7-3.4-0.9-5.9-0.4c-5.6,1.1-10.3,4.6-13.8,10.4
						c-3.8,6.2-6.7,15.5-8.7,27.8c-0.1,0.6-0.2,1.5-0.4,2.7c0.2-0.2,0.4-0.5,0.6-0.7c3.6-4,5.3-4.8,6.5-5c1-0.2,2.3,0,4,0.5
						c1.3,0.4,3.6,1.1,3.7,3.3l0,0.2l0,0.3c-0.8,3.1-1.5,6.7-2.2,10.6c-0.9,4.8-1,7-1,8c0,0.3,0,0.5,0.1,0.6c0.1,0,0.3,0,0.5-0.1
						c1.4-0.3,2.9-1.1,4.4-2.4c1.7-1.5,3.3-3.3,4.6-5.3c1.3-2,2.3-3.9,2.8-5.5l0.6-2.1l2.2,0.5c0.7,0.2,1.3,0.4,1.8,0.9
						c0.7,0.6,1.1,1.5,1.1,2.7c0,0.7,0,1.4-0.2,2.1c-0.4,2.1-1.6,4.3-3.5,7c-1.9,2.5-4.1,4.8-6.7,6.8c-2.7,2.1-5.5,3.4-8.3,4
						c-2.9,0.6-5.3,0.1-7.1-1.4c-1.8-1.5-2.7-3.7-2.8-6.6c-0.1-1.7,0.1-3.8,0.6-6.1c0.2-0.9,0.4-2,0.6-3.3c-0.6,0.8-1.2,1.6-1.9,2.5
						c-1.2,1.7-2.2,3.4-2.9,5.1c-0.1,0.6-0.3,2-0.6,4.4l-0.6,4c-0.2,1.5-0.5,2.4-1,3c-0.6,0.7-1.4,1.2-2.5,1.4
						C280,84.6,278.9,84.7,277.9,84.7z M276.9,81.4c0.1,0,0.3,0,0.6,0.1l0.4,0c0.8,0,1.7-0.1,2.6-0.3c0.4-0.1,0.6-0.2,0.6-0.2
						c0,0,0.2-0.3,0.3-1.5l0.6-4c0.3-2.3,0.5-4.1,0.7-4.7l0.1-0.3c0.8-1.9,1.9-3.9,3.3-5.9c1.4-2,2.8-3.7,4.1-5
						c0.8-0.8,1.5-1.5,2.1-1.9l3.4-2.4l-0.9,4.1c-0.8,3.6-1.4,6.5-1.8,8.5c-0.4,2.1-0.6,4-0.5,5.4c0.1,2,0.6,3.4,1.7,4.3
						c1,0.9,2.6,1.1,4.5,0.7c2.3-0.4,4.6-1.6,6.9-3.4c2.4-1.8,4.4-3.9,6.1-6.2c1.7-2.3,2.7-4.1,3-5.7c0.1-0.3,0.1-0.7,0.1-1
						c-0.6,1.5-1.5,3.2-2.6,4.9c-1.5,2.3-3.3,4.3-5.2,6c-2,1.7-4,2.8-5.9,3.2c-1.3,0.3-2.4,0.1-3.2-0.5c-0.8-0.6-1.2-1.6-1.2-3
						c-0.1-1.7,0.3-4.6,1-8.7c0.7-3.9,1.4-7.3,2.1-10.3c-0.2-0.1-0.6-0.3-1.3-0.5c-1.6-0.5-2.2-0.5-2.5-0.4c-0.5,0.1-1.8,0.7-4.7,4
						c-1.5,1.7-3,3.4-4.3,5.2l-3.9,5.3l1.1-6.5c0.8-4.4,1.2-7.3,1.5-8.6c2.1-12.7,5.1-22.4,9.1-28.9c4.1-6.6,9.4-10.6,16-11.9
						c3.2-0.6,5.9-0.4,8,0.7c1.4,0.7,2.6,1.9,3.6,3.5c-0.2-1.2-0.6-2.5-1.1-3.7c-0.8-1.8-2.2-3.3-4.1-4.4c-1.9-1.1-4.4-1.3-7.4-0.8
						c-4,0.7-7.8,2.9-11.5,6.3c-3.7,3.4-7,8.6-9.9,15.3c-2.9,6.7-5.2,15.2-6.7,25.1c-0.6,3.7-1,6.4-1.2,8.2c-0.2,1.2-0.5,3-0.9,5.4
						c-0.4,2.3-1.2,6.5-2.2,12.4L276.9,81.4z"/>
				</g>
			</g>
			<g>
				<g>
					<path class="st2" d="M296,112.5c-2,0-3.7-0.4-5.1-1.1c-2.3-1.2-3.6-3.1-3.7-5.6c-0.1-1.6,0.4-3.2,1.4-4.7l0.5-0.8l0.7,0.7
						c1.3,1.3,3.1,2.2,5.4,2.8c2.3,0.6,5.1,0.6,8.2,0c3.7-0.7,6.9-2.2,9.7-4.5c2.8-2.3,5.4-5.9,7.6-10.7c2.1-4.3,4-10,5.7-16.9
						c-0.7,0.6-1.5,1.1-2.2,1.6c-1.5,0.9-2.6,1.5-3.6,1.7c-1,0.2-2.2,0.1-3.4-0.2c-1.3-0.3-2.4-0.9-3.3-1.7c-1-0.8-1.6-1.9-1.6-3.1
						c0.2-1,0.4-3.1,0.9-6.2c0.6-5.3,1.3-10.1,2-14c0.2-1.1,0.9-2.5,3.4-3c0.5-0.1,1.3-0.2,2.1-0.3c1.2-0.1,1.6-0.1,1.9-0.1l0.8,0.1
						l-0.1,0.8c-0.6,3.3-1.4,8.2-2.3,14.8c-0.3,2.5-0.6,4.3-0.8,5.6c0,0.6,0.2,1.1,0.6,1.5c0.4,0.4,0.9,0.5,1.4,0.4
						c0.5-0.1,1.5-0.5,3.1-1.8c1.2-1,2.2-2,2.8-2.9l1-7c1-6.6,1.6-10.8,1.8-12.8l0.1-0.6l0.6-0.1c1.1-0.2,2.4-0.3,3.9-0.4l0,0
						c1.2,0,2.8,0.1,3.2,1.2l0.1,0.2l0,0.2c-0.6,3.5-1.3,7.5-2.2,12.2c-0.9,4.6-1.6,8.5-2.3,11.4c-2.4,10.4-6.1,19.8-11.1,27.9
						c-5.1,8.2-12.5,13.2-22,15C299,112.4,297.4,112.5,296,112.5z"/>
					<path class="st2" d="M296,114.1c-2.3,0-4.2-0.4-5.8-1.2c-2.8-1.5-4.4-3.9-4.5-7c-0.1-2,0.5-3.8,1.7-5.6l1.6-2.4l2.1,2.1
						c1.1,1.1,2.6,1.9,4.7,2.4c2.1,0.5,4.7,0.5,7.5,0c3.4-0.6,6.4-2,9-4.2c2.6-2.2,5-5.6,7.2-10.1c1.6-3.4,3.1-7.6,4.5-12.6
						c-1.1,0.6-2.1,1-3,1.2c-1.2,0.2-2.6,0.1-4.1-0.3c-1.5-0.4-2.8-1.1-3.9-2c-1.4-1.1-2.1-2.6-2.2-4.2l0-0.1l0-0.1
						c0.2-1,0.4-3,0.9-6.2c0.6-5.3,1.3-10.1,2.1-14.1c0.4-2.2,2.1-3.7,4.6-4.2c0.6-0.1,1.3-0.2,2.2-0.3c1.4-0.2,1.9-0.1,2.2-0.1
						l2.5,0.3l-0.4,2.5c-0.6,3.2-1.4,8.2-2.3,14.8c-0.3,2.4-0.6,4.2-0.8,5.4c0,0.1,0,0.1,0.1,0.2c0.2,0,0.9-0.2,2.4-1.4
						c1-0.8,1.8-1.6,2.3-2.3l0.9-6.6c1-6.6,1.6-10.8,1.8-12.8l0.2-1.7l1.7-0.3c1.2-0.2,2.6-0.4,4.1-0.4c2.7-0.1,4.2,0.7,4.7,2.4
						l0.2,0.5l-0.1,0.6c-0.6,3.5-1.3,7.6-2.2,12.2c-0.9,4.6-1.7,8.5-2.4,11.5c-2.4,10.6-6.2,20.1-11.3,28.3
						c-5.3,8.6-13.1,13.9-23,15.7C299.2,113.9,297.5,114.1,296,114.1z M289.5,102.9c-0.5,0.9-0.7,1.9-0.7,2.9c0.1,1.9,1,3.3,2.8,4.3
						c1.9,1,4.9,1.1,8.9,0.4c9-1.7,16-6.5,20.9-14.3c4.9-7.9,8.6-17.1,10.9-27.4c0.7-3,1.5-6.8,2.3-11.4c0.8-4.5,1.5-8.4,2.1-11.8
						c-0.2,0-0.6-0.1-1.5-0.1c-1.1,0-2.2,0.1-3.1,0.2c-0.3,2.2-0.8,6.2-1.7,12.3l-1,7.4l-0.2,0.3c-0.7,1-1.8,2.1-3.1,3.3
						c-1.5,1.2-2.7,1.9-3.8,2.1c-1,0.2-1.9-0.1-2.7-0.7c-0.7-0.6-1.2-1.6-1.2-2.6l0-0.2l0-0.2c0.2-1.2,0.5-3,0.8-5.5
						c0.9-6,1.6-10.7,2.2-13.9c-0.2,0-0.4,0-0.6,0.1c-0.8,0.1-1.5,0.2-2,0.3c-1.7,0.3-2,1.1-2.1,1.7c-0.7,4-1.4,8.7-2,13.9
						c-0.4,3-0.7,5-0.8,6.1c0.1,0.7,0.4,1.2,1,1.8c0.8,0.6,1.7,1.1,2.7,1.4c1,0.3,2,0.4,2.7,0.2c0.8-0.1,1.8-0.6,3.1-1.5
						c0.7-0.5,1.4-1,2.1-1.5l3.6-2.8l-1.1,4.4c-1.7,7-3.7,12.8-5.8,17.2c-2.4,5-5.1,8.7-8,11.2c-3,2.5-6.5,4.1-10.4,4.9
						c-3.3,0.6-6.3,0.6-8.9,0C292.7,104.9,290.9,104,289.5,102.9z"/>
				</g>
			</g>
		</g>
	</g>
	<g>
		<g>
			<path d="M9,144.3c-0.3,0-0.7,0-1,0c-1.3-0.1-2.8-0.4-4.5-0.8l-0.5-0.1L3,142.8c-0.3-1.5-0.4-3-0.5-4.4l-0.1-2.8l0.5-0.3l1.8-0.8
				l0.3,0.7c0.9,1.9,1.9,3.3,3.1,4c1.2,0.7,3,0.8,5.4,0.3c2.3-0.4,4.3-1.3,5.9-2.5c1.6-1.2,2.9-2.9,4-5.2c1.1-2.3,2.1-5.4,2.9-9.2
				c0.8-3.9,2-10.6,3.5-19.9c1.5-9.3,2.2-14.7,2.2-16.2c0-0.1,0-0.1,0-0.2c-0.1,0-0.4,0-1,0.1c-2.5,0.5-4.9,1.3-7.1,2.5
				c-2.2,1.2-4,2.7-5.3,4.5c-1.3,1.7-1.9,3.6-1.8,5.6c0,1.3,0.4,2.4,1,3.3c0.6,0.9,1.4,1.5,2.4,1.8l2.2,0.7l-2.2,0.8
				c-0.8,0.3-1.5,0.5-2,0.6l-0.1,0l-0.1,0c-2.5-0.1-4.5-0.7-6.1-1.8c-1.6-1.2-2.4-2.9-2.5-5.2c-0.2-4.9,3.3-9.1,10.2-12.6
				c6.7-3.3,15.7-6,26.7-8.1c0.3-0.1,0.7,0,0.9,0.2c0.6,0.4,0.9,1.4,1.2,3.2l0.1,0.8l-6.2,1c-1,0.2-1.6,0.5-1.8,0.7
				c-0.3,0.2-0.6,0.7-0.8,1.3c-0.2,0.7-0.5,2-0.8,3.7c-0.4,2.3-1.2,7.8-2.4,16.4c-0.3,1.7-0.7,4.5-1.2,8.4c-0.6,3.9-1,6.7-1.3,8.2
				c-1.2,6-3.6,10.8-7.2,14.3c-3.6,3.5-8.2,5.8-13.6,6.9C11.6,144.1,10.2,144.3,9,144.3z"/>
		</g>
		<g>
			<path d="M53.9,125.5c-1.2,0-2.4-0.3-3.7-1c-1.8-0.9-2.8-2.1-3.1-3.4l0-0.1l0-0.1l3.2-21.6c0.2-1.2,0.7-1.9,1.5-2.1
				c0.6-0.1,1.6-0.1,3.1,0c1,0.1,2.8,0.2,2.9,1.4c0,0.1,0,0.3-0.5,2.8c-0.4,1.9-0.9,4.8-1.5,8.6c-0.6,3.7-1,6.5-1.2,8.2
				c0.1,0.3,0.3,0.6,0.7,0.8c0.4,0.3,0.8,0.3,1.4,0.2c1.1-0.2,2.2-1.1,3.5-2.7c1.3-1.6,2.3-4.1,3.1-7.3c0.7-2.7,1.6-7.3,2.6-13.5
				c0.1-0.8,0.6-1.4,1.3-1.5c0.7-0.1,1.6-0.1,3,0c0.7,0.1,2.6,0.3,2.6,1.6l0,0.1l0,0.1c-1.1,4.7-2.1,8.9-2.8,12.7
				c-0.7,3.7-1.1,6.1-1.1,7.2c0,0.6,0.2,1,0.6,1.3c0.3,0.3,0.9,0.4,1.6,0.2c1.7-0.3,3.6-1.7,5.8-4.1c2.3-2.5,4.4-5.9,6.4-10.1
				l0.2-0.5l0.5,0c1.1,0.1,1.8,0.7,1.9,1.7l0,0c0,1.2-0.7,3.1-2.4,6c-1.6,2.7-3.6,5.3-5.9,7.6c-2.4,2.4-4.9,3.9-7.4,4.4
				c-2,0.4-3.7,0.1-5.2-0.9c-1-0.6-1.6-1.5-2-2.5c-0.9,1.3-1.9,2.4-3,3.5c-1.6,1.6-3.2,2.5-4.7,2.8
				C54.6,125.5,54.2,125.5,53.9,125.5z"/>
		</g>
		<g>
			<path d="M84,120.2c-0.8,0-1.6-0.1-2.3-0.2l0,0c-1.5-0.3-2.8-0.9-3.7-1.7c-1-0.9-1.5-1.9-1.6-3.1c0-1.1,0.3-2,1.1-2.8
				c0.7-0.7,1.5-1.2,2.4-1.5l0.7-0.2l0.3,0.7c0.5,1.5,1.3,2.5,2.3,3.2c0.9,0.7,2,0.9,3.4,0.6c1.4-0.3,2.5-0.9,3.4-1.9
				c0.9-1,1.3-2,1.2-3.1c0-0.9-0.3-1.5-0.9-2.1c-0.6-0.6-1.7-1.3-3.1-2.1c-1.6-0.9-2.8-1.8-3.7-2.6c-0.9-0.9-1.4-2.1-1.5-3.5
				c-0.1-1.5,0.4-3.1,1.4-4.6c1-1.5,2.2-2.7,3.8-3.8c1.5-1,3.1-1.7,4.7-2c1.8-0.3,3.5-0.2,5.1,0.3c2.3,0.7,2.9,2,2.9,2.9
				c0,0.6-0.2,1.3-0.6,2c-0.4,0.6-1,1.2-1.8,1.7l-0.6,0.4l-0.4-0.6c-0.6-0.8-1.2-1.4-1.8-1.7c-0.5-0.3-1.2-0.4-2-0.2
				c-0.9,0.2-1.7,0.6-2.4,1.2c-0.6,0.6-0.9,1.2-0.9,2c0,0.7,0.3,1.3,0.8,1.7c0.6,0.6,1.7,1.3,3,2.1c1.8,1,3.1,1.9,4,2.8
				c1,1,1.5,2.2,1.6,3.8c0.1,1.7-0.5,3.4-1.7,5.2c-1.1,1.7-2.7,3.2-4.5,4.5c-1.9,1.3-3.9,2.1-6.1,2.6
				C85.7,120.1,84.8,120.2,84,120.2z"/>
		</g>
		<g>
			<path d="M112.5,114.7c-1.5,0-2.8-0.4-3.8-1.3c-1.4-1.2-2.1-2.9-2.2-5.3c-0.1-2.3,0.5-7.6,1.9-16.3l-5.4,1.2
				c-0.6,0.1-0.9-0.4-1.1-0.6c-0.2-0.2-0.3-0.5-0.4-0.6l-0.1-0.3l0.1-0.3c0.7-1.6,1.2-2.7,1.7-3.4l0.2-0.3l5.8-1.1l2.5-15.2l0.3-0.2
				c2.8-2.1,5.5-3.7,7.9-4.6c0.5-0.1,1,0,1.4,0.3c0.5,0.3,0.7,0.7,0.7,1.1l0,0.4l-0.4,0.2c-1.6,1-2.5,2.4-2.8,4.1
				c-0.5,2.6-1.2,6.6-2.1,12.3l12.5-2.3L129,84c0,0,0,0.2,0,0.5c0,0.4,0.1,0.6,0.1,0.8c0,0.8-0.3,1.2-0.5,1.5
				c-0.3,0.3-0.8,0.5-1.4,0.7l-11.2,2.6c-1.3,8.5-1.9,13.8-1.9,16c0,0.9,0.3,1.6,0.8,2c0.4,0.4,1.2,0.5,2.3,0.3
				c1.9-0.3,4-1.5,6.3-3.3c2.4-1.9,4.8-4.3,7.1-7.1l0.6-0.7l0.6,0.7c0.4,0.4,0.6,1,0.7,1.5l0,0c0,0.4-0.1,0.9-0.2,1.6
				c-0.6,1.7-2,3.5-4.1,5.4c-2,1.9-4.3,3.7-6.9,5.1c-2.6,1.5-4.9,2.5-6.9,2.8C113.7,114.7,113.1,114.7,112.5,114.7z"/>
		</g>
		<g>
			<path d="M147.6,108c-0.5,0-0.8-0.1-1.1-0.3c-0.5-0.3-0.8-0.9-0.9-1.8c0-1.1,0.2-3.4,0.9-7.2c0.6-3.7,1.5-8.9,2.8-15.6
				c0.8-4.3,1.5-8.2,2.1-12c0.6-3.6,0.8-5.3,0.9-6c-0.1,0-0.1,0-0.2,0c-0.3,0.1-1,0.3-3.1,1c-2.4,0.9-4.2,1.4-5.4,1.6
				c-1.2,0.2-2,0.2-2.6,0c-0.4-0.2-1.1-0.6-1.1-1.9c0-0.6,0.1-1.4,0.3-2.4c0.2-1,0.5-1.7,0.8-2.2l0.3-0.5l0.6,0.1
				c1.5,0.3,3.5,0.2,5.8-0.2c2-0.4,5-1.1,8.9-2.2c0.5-0.1,1.9-0.5,4.2-1.1c2.3-0.6,4.3-1.1,6.1-1.4c5.4-1,9.5-0.8,12.3,0.6
				c2.9,1.4,4.5,4.3,4.6,8.5c0.1,3.4-0.6,6.6-2.3,9.5c-1.6,2.9-3.9,5.4-6.8,7.3c-2.9,1.9-6.1,3.3-9.5,3.9c-2.6,0.5-4.4,0.5-5.5,0
				c-1.6-0.7-2-1.8-2-2.6c0-0.5,0.1-1,0.3-1.5c0.2-0.5,0.5-0.9,0.8-1.2l0.4-0.4l0.5,0.3c0.2,0.1,0.6,0.3,1.7,0.3
				c0.9,0.1,2,0,3.1-0.3c2.4-0.5,4.4-1.3,6.1-2.6c1.7-1.3,2.9-2.9,3.8-4.7c0.8-1.8,1.2-3.8,1.1-5.8c-0.1-2.4-0.8-4.1-2-5.1
				c-1.5-1.2-3.9-1.5-7.2-0.9c-1.7,0.3-3.2,0.8-4.6,1.4c-0.8,0.4-1.8,1-2,1.8c-0.8,3.7-1.9,10.8-3.5,21.1c-2,12.8-2.4,16.6-2.3,17.6
				c0,0.4,0,0.7,0.1,1.1c0.1,0.4,0.1,0.8,0.1,1.2l0,0.5l-0.5,0.2c-1.8,0.8-3.4,1.3-4.8,1.6C148.3,108,147.9,108,147.6,108z"/>
		</g>
		<g>
			<path d="M196.3,98.5c-1.3,0-2.5-0.2-3.6-0.6c-1.8-0.7-3.3-1.6-4.3-2.7c-1.1-1.2-1.6-2.1-1.6-2.9l0-0.1l0-0.1
				c0.3-1.1,0.5-2.5,0.7-4.1c0.2-1.6,0.4-2.7,0.5-3.4c0.1-0.8,0.2-1.7,0.4-2.8c0.2-1.1,0.4-2.4,0.6-3.8c0.2-1.1,1-2.3,2.4-3.7
				c1.4-1.3,3-2.6,4.7-3.6c1.8-1.1,3.3-1.7,4.6-2c1.1-0.2,2.3-0.2,3.8,0.1c1.5,0.3,2.8,0.8,3.9,1.6c1.2,0.9,1.8,2.1,1.9,3.6
				c0.1,1.8-0.8,3.7-2.4,5.6c-1.6,1.9-3.7,3.6-6.2,5c-2.3,1.4-4.7,2.3-6.9,2.9l-0.3,2.2c0.2,1,0.7,1.8,1.7,2.4
				c1,0.6,2.6,0.8,4.7,0.4c2.1-0.4,4.3-1.3,6.6-2.7c2.3-1.4,4.5-3.2,6.4-5.2c1.9-2.1,3.4-4.2,4.5-6.5l0.3-0.6l0.6,0.2
				c1.5,0.4,1.8,1.4,1.8,2c0.1,2.2-1.1,4.5-3.5,7.3c-2.3,2.6-5.2,5-8.6,7.1c-3.4,2.1-6.7,3.5-9.7,4.1
				C198.3,98.4,197.3,98.5,196.3,98.5z M201.2,73.1c-0.2,0-0.3,0-0.5,0c-0.9,0.2-1.8,0.8-2.7,1.9v0c-0.9,1.1-1.5,2.2-1.7,3.1
				l-0.7,4.8c2-0.7,3.7-1.7,5.2-3c1.6-1.5,2.4-3.1,2.4-4.6c0-0.8-0.3-1.4-0.8-1.8C202.1,73.2,201.7,73.1,201.2,73.1z"/>
		</g>
		<g>
			<path d="M222.4,93.9c-0.9,0-1.8-0.2-2.6-0.5c-1.3-0.5-2.4-1.2-3.3-2.2c-1-1-1.5-2.1-1.6-3.3l0-0.1l0-0.1c0.9-4.5,1.6-9,2.3-13.2
				c0.2-1,0.9-2.4,2.3-4.1c1.3-1.6,2.9-3.1,4.8-4.4c1.9-1.4,3.8-2.2,5.6-2.5c1.4-0.3,2.9-0.2,4.4,0.3c0.2-0.6,0.4-0.9,0.5-1
				c0.3-0.4,0.7-0.6,1.2-0.8l6.1-1.5l1.5,0.7l-0.8,0.8c-0.4,0.5-0.8,0.9-1,1.4c-0.2,0.5-0.4,1.1-0.6,1.8c-0.7,2.7-1.4,6.1-2.1,9.9
				c-0.7,3.8-1,6.4-1,7.8c0,1.1,0.3,1.9,0.9,2.7c0.3,0.4,0.8,0.9,2.1,0.6c1.2-0.2,2.6-1,4.2-2.4c1.6-1.4,3.2-3.2,4.6-5.4
				c1.4-2.2,2.4-4.6,3-7.2l0.1-0.5l0.5-0.1c0.7-0.1,1.1,0.1,1.4,0.3c0.5,0.4,0.8,1.1,0.8,2.1l0,0c0.1,2.2-0.7,4.7-2.4,7.4
				c-1.7,2.6-3.8,5-6.3,7c-2.6,2.1-5,3.3-7.2,3.7c-1.9,0.4-3.5,0.1-5-0.7c-1.1-0.6-1.9-1.4-2.6-2.4c-1,1.3-2.2,2.5-3.6,3.5
				c-1.8,1.3-3.3,2-4.8,2.3C223.2,93.9,222.8,93.9,222.4,93.9z M222.8,85.2c0.1,0.8,0.5,1.5,1.1,2.1c0.8,0.8,1.4,0.7,1.5,0.7
				c0.3-0.1,0.9-0.3,1.8-1.1l0,0c0.8-0.7,1.6-1.6,2.3-2.7c0.7-1.1,1.2-2.3,1.4-3.5l0.9-5c0.6-3.5,1-5.9,1.2-7.3
				c-0.8-0.1-1.7-0.1-2.6,0.1c-1.9,0.4-3.2,1.2-4.1,2.4c-0.9,1.4-1.5,2.8-1.8,4.4L222.8,85.2z"/>
		</g>
		<g>
			<path d="M259.8,86.6c-1.3,0-2.5-0.2-3.6-0.6c-1.8-0.6-3.3-1.5-4.5-2.6c-1.2-1.2-1.8-2.2-1.9-3.2l0-0.1l0-0.1c0.8-3.4,1.3-6,1.7-8
				c0.4-1.9,0.7-4.1,1.1-6.4c0.1-1,0.8-2.2,2.2-3.5c1.2-1.3,2.7-2.4,4.5-3.5c1.8-1.1,3.4-1.8,4.9-2c1.9-0.3,3.7-0.2,5.5,0.3
				c2.5,0.8,3.1,2.5,3.1,3.8c0.1,2.2-1.3,4-4.1,5.6l-0.2,0.1l-1.2-0.1l-0.1-0.7c-0.1-1.4-0.6-2.6-1.3-3.5c-1-1.3-1.8-1.1-2-1.1
				c-0.8,0.1-1.7,0.8-2.6,1.9c-0.9,1.1-1.5,2.1-1.6,2.9c-0.6,3.7-1.3,8-2.1,12.6c0.2,1.1,0.7,1.9,1.5,2.4c0.5,0.4,1.7,0.7,4.3,0.2
				c2.7-0.5,5.6-1.9,8.6-4c2.9-2.1,5.2-5.6,6.8-10.3l0.1-0.4l0.5-0.1c0.8-0.1,1.3,0.1,1.5,0.3c0.5,0.4,0.8,1,0.8,2
				c0.1,2.3-1,4.7-3.2,7.4c-2.2,2.5-4.8,4.8-7.9,6.8c-3.1,2-5.9,3.3-8.4,3.7C261.3,86.5,260.5,86.6,259.8,86.6z"/>
		</g>
		<g>
			<path d="M277.9,83.1c-0.1,0-0.3,0-0.4,0c-1,0-1.5-0.2-1.9-0.6c-0.2-0.2-0.3-0.6-0.3-0.9l0.4-2.6c1.1-5.9,1.8-10.1,2.2-12.4
				c0.4-2.3,0.7-4.1,0.9-5.3c0.2-1.8,0.7-4.6,1.2-8.3c1.6-10.1,3.9-18.7,6.8-25.5c3-6.9,6.4-12.2,10.3-15.8c3.8-3.6,8-5.9,12.3-6.7
				c3.5-0.7,6.3-0.3,8.5,1h0c2.2,1.3,3.8,3,4.7,5.2c0.9,2.1,1.4,4.2,1.5,6.2l0,0.2l-1.2,3l-0.7-1.8c-1.1-2.6-2.5-4.4-4.2-5.3
				c-1.7-0.9-4.1-1.1-6.9-0.6C305,14,300,17.7,296.1,23.9c-3.9,6.4-6.9,15.9-8.9,28.3c-0.2,1.3-0.7,4.2-1.5,8.7
				c1.4-1.8,2.8-3.6,4.4-5.4c3.4-3.7,4.8-4.3,5.6-4.5c0.8-0.1,1.8,0,3.3,0.5c1.5,0.5,2.5,0.9,2.5,1.8l0,0.1l0,0.1
				c-0.7,3-1.5,6.6-2.2,10.6c-0.7,4-1.1,6.8-1,8.4c0,0.9,0.2,1.5,0.6,1.8c0.4,0.3,1,0.4,1.9,0.2c1.7-0.3,3.4-1.3,5.2-2.8
				c1.8-1.6,3.5-3.5,4.9-5.7c1.4-2.1,2.4-4.1,3-5.9l0.2-0.7l0.7,0.2c0.4,0.1,0.8,0.3,1.1,0.5c0.4,0.3,0.5,0.8,0.6,1.5
				c0,0.5,0,1.1-0.2,1.7c-0.4,1.8-1.4,3.9-3.3,6.4c-1.8,2.4-3.9,4.6-6.4,6.5c-2.5,2-5.1,3.2-7.6,3.7c-2.4,0.5-4.4,0.1-5.8-1.1
				c-1.4-1.2-2.2-3-2.3-5.5c-0.1-1.6,0.1-3.5,0.5-5.8c0.4-2,1-4.9,1.8-8.6c-0.3,0.2-0.9,0.7-1.9,1.7c-1.3,1.3-2.6,2.9-4,4.8
				c-1.4,1.9-2.4,3.8-3.1,5.6c-0.1,0.6-0.3,2.2-0.6,4.7l-0.6,4c-0.2,1.5-0.4,2-0.7,2.3c-0.3,0.4-0.8,0.7-1.6,0.8
				C279.8,83,278.8,83.1,277.9,83.1z"/>
		</g>
		<g>
			<path d="M296,112.5c-2,0-3.7-0.4-5.1-1.1c-2.3-1.2-3.6-3.1-3.7-5.6c-0.1-1.6,0.4-3.2,1.4-4.7l0.5-0.8l0.7,0.7
				c1.3,1.3,3.1,2.2,5.4,2.8c2.3,0.6,5.1,0.6,8.2,0c3.7-0.7,6.9-2.2,9.7-4.5c2.8-2.3,5.4-5.9,7.6-10.7c2.1-4.3,4-10,5.7-16.9
				c-0.7,0.6-1.5,1.1-2.2,1.6c-1.5,0.9-2.6,1.5-3.6,1.7c-1,0.2-2.2,0.1-3.4-0.2c-1.3-0.3-2.4-0.9-3.3-1.7c-1-0.8-1.6-1.9-1.6-3.1
				c0.2-1,0.4-3.1,0.9-6.2c0.6-5.3,1.3-10.1,2-14c0.2-1.1,0.9-2.5,3.4-3c0.5-0.1,1.3-0.2,2.1-0.3c1.2-0.1,1.6-0.1,1.9-0.1l0.8,0.1
				l-0.1,0.8c-0.6,3.3-1.4,8.2-2.3,14.8c-0.3,2.5-0.6,4.3-0.8,5.6c0,0.6,0.2,1.1,0.6,1.5c0.4,0.4,0.9,0.5,1.4,0.4
				c0.5-0.1,1.5-0.5,3.1-1.8c1.2-1,2.2-2,2.8-2.9l1-7c1-6.6,1.6-10.8,1.8-12.8l0.1-0.6l0.6-0.1c1.1-0.2,2.4-0.3,3.9-0.4l0,0
				c1.2,0,2.8,0.1,3.2,1.2l0.1,0.2l0,0.2c-0.6,3.5-1.3,7.5-2.2,12.2c-0.9,4.6-1.6,8.5-2.3,11.4c-2.4,10.4-6.1,19.8-11.1,27.9
				c-5.1,8.2-12.5,13.2-22,15C299,112.4,297.4,112.5,296,112.5z"/>
		</g>
	</g>
</g>
</svg>
